%TF.GenerationSoftware,KiCad,Pcbnew,(6.0.2)*%
%TF.CreationDate,2022-03-22T23:14:37+08:00*%
%TF.ProjectId,som,736f6d2e-6b69-4636-9164-5f7063625858,V0R1*%
%TF.SameCoordinates,Original*%
%TF.FileFunction,Paste,Top*%
%TF.FilePolarity,Positive*%
%FSLAX46Y46*%
G04 Gerber Fmt 4.6, Leading zero omitted, Abs format (unit mm)*
G04 Created by KiCad (PCBNEW (6.0.2)) date 2022-03-22 23:14:37*
%MOMM*%
%LPD*%
G01*
G04 APERTURE LIST*
G04 Aperture macros list*
%AMRoundRect*
0 Rectangle with rounded corners*
0 $1 Rounding radius*
0 $2 $3 $4 $5 $6 $7 $8 $9 X,Y pos of 4 corners*
0 Add a 4 corners polygon primitive as box body*
4,1,4,$2,$3,$4,$5,$6,$7,$8,$9,$2,$3,0*
0 Add four circle primitives for the rounded corners*
1,1,$1+$1,$2,$3*
1,1,$1+$1,$4,$5*
1,1,$1+$1,$6,$7*
1,1,$1+$1,$8,$9*
0 Add four rect primitives between the rounded corners*
20,1,$1+$1,$2,$3,$4,$5,0*
20,1,$1+$1,$4,$5,$6,$7,0*
20,1,$1+$1,$6,$7,$8,$9,0*
20,1,$1+$1,$8,$9,$2,$3,0*%
G04 Aperture macros list end*
%ADD10RoundRect,0.147500X-0.147500X-0.172500X0.147500X-0.172500X0.147500X0.172500X-0.147500X0.172500X0*%
%ADD11R,1.400000X1.200000*%
%ADD12RoundRect,0.140000X0.170000X-0.140000X0.170000X0.140000X-0.170000X0.140000X-0.170000X-0.140000X0*%
%ADD13RoundRect,0.225000X-0.250000X0.225000X-0.250000X-0.225000X0.250000X-0.225000X0.250000X0.225000X0*%
%ADD14RoundRect,0.079500X-0.100500X0.079500X-0.100500X-0.079500X0.100500X-0.079500X0.100500X0.079500X0*%
%ADD15RoundRect,0.243750X-0.243750X-0.656250X0.243750X-0.656250X0.243750X0.656250X-0.243750X0.656250X0*%
%ADD16RoundRect,0.140000X0.140000X0.170000X-0.140000X0.170000X-0.140000X-0.170000X0.140000X-0.170000X0*%
%ADD17RoundRect,0.140000X-0.140000X-0.170000X0.140000X-0.170000X0.140000X0.170000X-0.140000X0.170000X0*%
%ADD18RoundRect,0.243750X0.243750X0.656250X-0.243750X0.656250X-0.243750X-0.656250X0.243750X-0.656250X0*%
%ADD19RoundRect,0.140000X-0.170000X0.140000X-0.170000X-0.140000X0.170000X-0.140000X0.170000X0.140000X0*%
%ADD20RoundRect,0.079500X0.079500X0.100500X-0.079500X0.100500X-0.079500X-0.100500X0.079500X-0.100500X0*%
%ADD21RoundRect,0.079500X-0.079500X-0.100500X0.079500X-0.100500X0.079500X0.100500X-0.079500X0.100500X0*%
%ADD22R,1.100000X1.000000*%
%ADD23R,1.000000X1.000000*%
%ADD24R,0.800000X0.220000*%
%ADD25R,0.220000X0.800000*%
%ADD26RoundRect,0.147500X0.147500X0.172500X-0.147500X0.172500X-0.147500X-0.172500X0.147500X-0.172500X0*%
%ADD27RoundRect,0.079500X0.100500X-0.079500X0.100500X0.079500X-0.100500X0.079500X-0.100500X-0.079500X0*%
%ADD28RoundRect,0.232500X0.232500X-0.232500X0.232500X0.232500X-0.232500X0.232500X-0.232500X-0.232500X0*%
%ADD29RoundRect,0.062500X0.062500X-0.375000X0.062500X0.375000X-0.062500X0.375000X-0.062500X-0.375000X0*%
%ADD30RoundRect,0.062500X0.375000X-0.062500X0.375000X0.062500X-0.375000X0.062500X-0.375000X-0.062500X0*%
%ADD31R,0.400000X0.500000*%
%ADD32RoundRect,0.079500X-0.127279X-0.014849X-0.014849X-0.127279X0.127279X0.014849X0.014849X0.127279X0*%
%ADD33R,0.500000X0.400000*%
%ADD34R,0.500000X0.300000*%
%ADD35RoundRect,0.147500X0.172500X-0.147500X0.172500X0.147500X-0.172500X0.147500X-0.172500X-0.147500X0*%
%ADD36RoundRect,0.112500X-0.112500X-0.112500X0.112500X-0.112500X0.112500X0.112500X-0.112500X0.112500X0*%
%ADD37R,2.200000X1.050000*%
%ADD38R,0.300000X1.400000*%
%ADD39R,1.150000X1.000000*%
%ADD40R,1.300000X0.700000*%
%ADD41R,2.000000X1.200000*%
%ADD42R,0.300000X0.500000*%
G04 APERTURE END LIST*
D10*
%TO.C,D2*%
X45415000Y-22350000D03*
X46385000Y-22350000D03*
%TD*%
D11*
%TO.C,X4*%
X18500000Y-7250000D03*
X20700000Y-7250000D03*
X20700000Y-5550000D03*
X18500000Y-5550000D03*
%TD*%
D12*
%TO.C,C115*%
X69000000Y-6180000D03*
X69000000Y-5220000D03*
%TD*%
D13*
%TO.C,C100*%
X74000000Y-10025000D03*
X74000000Y-11575000D03*
%TD*%
D14*
%TO.C,C118*%
X67300000Y-18470000D03*
X67300000Y-17780000D03*
%TD*%
D15*
%TO.C,L3*%
X70962500Y-11100000D03*
X72837500Y-11100000D03*
%TD*%
D16*
%TO.C,C101*%
X73480000Y-9700000D03*
X72520000Y-9700000D03*
%TD*%
D17*
%TO.C,C106*%
X59520000Y-13300000D03*
X60480000Y-13300000D03*
%TD*%
D18*
%TO.C,L5*%
X62037500Y-11500000D03*
X60162500Y-11500000D03*
%TD*%
D15*
%TO.C,L2*%
X70962500Y-14300000D03*
X72837500Y-14300000D03*
%TD*%
D19*
%TO.C,C119*%
X64800000Y-17720000D03*
X64800000Y-18680000D03*
%TD*%
D12*
%TO.C,C109*%
X63000000Y-6180000D03*
X63000000Y-5220000D03*
%TD*%
D19*
%TO.C,C116*%
X65700000Y-17720000D03*
X65700000Y-18680000D03*
%TD*%
D13*
%TO.C,C105*%
X59000000Y-13625000D03*
X59000000Y-15175000D03*
%TD*%
%TO.C,C107*%
X59000000Y-10425000D03*
X59000000Y-11975000D03*
%TD*%
D19*
%TO.C,C117*%
X66600000Y-17720000D03*
X66600000Y-18680000D03*
%TD*%
D16*
%TO.C,C98*%
X73480000Y-12900000D03*
X72520000Y-12900000D03*
%TD*%
D12*
%TO.C,C103*%
X68000000Y-6180000D03*
X68000000Y-5220000D03*
%TD*%
D13*
%TO.C,C97*%
X74000000Y-13225000D03*
X74000000Y-14775000D03*
%TD*%
D18*
%TO.C,L4*%
X62037500Y-14700000D03*
X60162500Y-14700000D03*
%TD*%
D17*
%TO.C,C108*%
X59520000Y-10100000D03*
X60480000Y-10100000D03*
%TD*%
D12*
%TO.C,C110*%
X62000000Y-6180000D03*
X62000000Y-5220000D03*
%TD*%
D20*
%TO.C,C36*%
X18255000Y-17400000D03*
X18945000Y-17400000D03*
%TD*%
D12*
%TO.C,C113*%
X67000000Y-6180000D03*
X67000000Y-5220000D03*
%TD*%
D16*
%TO.C,C102*%
X62180000Y-10100000D03*
X61220000Y-10100000D03*
%TD*%
D12*
%TO.C,C114*%
X65000000Y-6180000D03*
X65000000Y-5220000D03*
%TD*%
D20*
%TO.C,C34*%
X18945000Y-15200000D03*
X18255000Y-15200000D03*
%TD*%
D12*
%TO.C,C111*%
X64000000Y-6180000D03*
X64000000Y-5220000D03*
%TD*%
D20*
%TO.C,C30*%
X18255000Y-10900000D03*
X18945000Y-10900000D03*
%TD*%
D17*
%TO.C,C99*%
X70820000Y-12900000D03*
X71780000Y-12900000D03*
%TD*%
%TO.C,C96*%
X70820000Y-9700000D03*
X71780000Y-9700000D03*
%TD*%
D20*
%TO.C,C32*%
X18945000Y-12700000D03*
X18255000Y-12700000D03*
%TD*%
D16*
%TO.C,C104*%
X62180000Y-13300000D03*
X61220000Y-13300000D03*
%TD*%
D12*
%TO.C,C112*%
X66000000Y-6180000D03*
X66000000Y-5220000D03*
%TD*%
D20*
%TO.C,C17*%
X29955000Y-5500000D03*
X30645000Y-5500000D03*
%TD*%
D21*
%TO.C,R2*%
X26755000Y-5500000D03*
X27445000Y-5500000D03*
%TD*%
D16*
%TO.C,C41*%
X20780000Y-21800000D03*
X19820000Y-21800000D03*
%TD*%
D22*
%TO.C,U7*%
X65250000Y-13900000D03*
X65250000Y-11500000D03*
X67750000Y-11500000D03*
X67750000Y-15100000D03*
X65250000Y-12700000D03*
X65250000Y-15100000D03*
X67750000Y-13900000D03*
D23*
X66500000Y-12700000D03*
X66500000Y-11500000D03*
X66500000Y-13900000D03*
X66500000Y-15100000D03*
D22*
X67750000Y-12700000D03*
D24*
X69000000Y-15500000D03*
X69000000Y-15100000D03*
X69000000Y-14700000D03*
X69000000Y-14300000D03*
X69000000Y-13900000D03*
X69000000Y-13500000D03*
X69000000Y-13100000D03*
X69000000Y-12700000D03*
X69000000Y-12300000D03*
X69000000Y-11900000D03*
X69000000Y-11500000D03*
X69000000Y-11100000D03*
D25*
X68300000Y-10300000D03*
X67900000Y-10300000D03*
X67500000Y-10300000D03*
X67100000Y-10300000D03*
X66700000Y-10300000D03*
X66300000Y-10300000D03*
X65900000Y-10300000D03*
X65500000Y-10300000D03*
X65100000Y-10300000D03*
X64700000Y-10300000D03*
D24*
X64000000Y-11100000D03*
X64000000Y-11500000D03*
X64000000Y-11900000D03*
X64000000Y-12300000D03*
X64000000Y-12700000D03*
X64000000Y-13100000D03*
X64000000Y-13500000D03*
X64000000Y-13900000D03*
X64000000Y-14300000D03*
X64000000Y-14700000D03*
X64000000Y-15100000D03*
X64000000Y-15500000D03*
D25*
X64700000Y-16300000D03*
X65100000Y-16300000D03*
X65500000Y-16300000D03*
X65900000Y-16300000D03*
X66300000Y-16300000D03*
X66700000Y-16300000D03*
X67100000Y-16300000D03*
X67500000Y-16300000D03*
X67900000Y-16300000D03*
X68300000Y-16300000D03*
%TD*%
D16*
%TO.C,C37*%
X19080000Y-16700000D03*
X18120000Y-16700000D03*
%TD*%
%TO.C,C35*%
X19080000Y-14500000D03*
X18120000Y-14500000D03*
%TD*%
%TO.C,C33*%
X19080000Y-12000000D03*
X18120000Y-12000000D03*
%TD*%
%TO.C,C39*%
X19580000Y-18600000D03*
X18620000Y-18600000D03*
%TD*%
%TO.C,C31*%
X19080000Y-10200000D03*
X18120000Y-10200000D03*
%TD*%
D26*
%TO.C,D3*%
X44585000Y-22350000D03*
X43615000Y-22350000D03*
%TD*%
D27*
%TO.C,R14*%
X47800000Y-4245000D03*
X47800000Y-3555000D03*
%TD*%
D14*
%TO.C,D15*%
X87200000Y-1855000D03*
X87200000Y-2545000D03*
%TD*%
D21*
%TO.C,D11*%
X85845000Y-21000000D03*
X85155000Y-21000000D03*
%TD*%
D14*
%TO.C,D8*%
X82000000Y-1855000D03*
X82000000Y-2545000D03*
%TD*%
D20*
%TO.C,C9*%
X86580000Y-14700000D03*
X87270000Y-14700000D03*
%TD*%
D21*
%TO.C,C6*%
X87270000Y-14000000D03*
X86580000Y-14000000D03*
%TD*%
D20*
%TO.C,R5*%
X78630000Y-18300000D03*
X79320000Y-18300000D03*
%TD*%
%TO.C,C7*%
X78630000Y-17600000D03*
X79320000Y-17600000D03*
%TD*%
%TO.C,C5*%
X78630000Y-13400000D03*
X79320000Y-13400000D03*
%TD*%
D21*
%TO.C,C8*%
X78630000Y-14100000D03*
X79320000Y-14100000D03*
%TD*%
%TO.C,C13*%
X78630000Y-16900000D03*
X79320000Y-16900000D03*
%TD*%
D20*
%TO.C,C4*%
X83745000Y-20000000D03*
X83055000Y-20000000D03*
%TD*%
D28*
%TO.C,U3*%
X83000000Y-14850000D03*
X84150000Y-17150000D03*
X83000000Y-16000000D03*
X81850000Y-14850000D03*
X81850000Y-17150000D03*
X83000000Y-17150000D03*
X81850000Y-16000000D03*
X84150000Y-14850000D03*
X84150000Y-16000000D03*
D29*
X81250000Y-18437500D03*
X81750000Y-18437500D03*
X82250000Y-18437500D03*
X82750000Y-18437500D03*
X83250000Y-18437500D03*
X83750000Y-18437500D03*
X84250000Y-18437500D03*
X84750000Y-18437500D03*
D30*
X85437500Y-17750000D03*
X85437500Y-17250000D03*
X85437500Y-16750000D03*
X85437500Y-16250000D03*
X85437500Y-15750000D03*
X85437500Y-15250000D03*
X85437500Y-14750000D03*
X85437500Y-14250000D03*
D29*
X84750000Y-13562500D03*
X84250000Y-13562500D03*
X83750000Y-13562500D03*
X83250000Y-13562500D03*
X82750000Y-13562500D03*
X82250000Y-13562500D03*
X81750000Y-13562500D03*
X81250000Y-13562500D03*
D30*
X80562500Y-14250000D03*
X80562500Y-14750000D03*
X80562500Y-15250000D03*
X80562500Y-15750000D03*
X80562500Y-16250000D03*
X80562500Y-16750000D03*
X80562500Y-17250000D03*
X80562500Y-17750000D03*
%TD*%
D17*
%TO.C,C11*%
X78420000Y-14900000D03*
X79380000Y-14900000D03*
%TD*%
%TO.C,C14*%
X78420000Y-16100000D03*
X79380000Y-16100000D03*
%TD*%
D31*
%TO.C,RN7*%
X77350000Y-12800000D03*
X78050000Y-12800000D03*
X78050000Y-11800000D03*
X77350000Y-11800000D03*
%TD*%
D14*
%TO.C,C3*%
X85600000Y-9355000D03*
X85600000Y-10045000D03*
%TD*%
D32*
%TO.C,R15*%
X57756048Y-17356048D03*
X58243952Y-17843952D03*
%TD*%
%TO.C,R17*%
X56556048Y-16756048D03*
X57043952Y-17243952D03*
%TD*%
D21*
%TO.C,R18*%
X60745000Y-19000000D03*
X60055000Y-19000000D03*
%TD*%
D33*
%TO.C,RN1*%
X19700000Y-9350000D03*
D34*
X19700000Y-9850000D03*
X19700000Y-10350000D03*
D33*
X19700000Y-10850000D03*
X20700000Y-10850000D03*
D34*
X20700000Y-10350000D03*
X20700000Y-9850000D03*
D33*
X20700000Y-9350000D03*
%TD*%
%TO.C,RN2*%
X19700000Y-11550000D03*
D34*
X19700000Y-12050000D03*
X19700000Y-12550000D03*
D33*
X19700000Y-13050000D03*
X20700000Y-13050000D03*
D34*
X20700000Y-12550000D03*
X20700000Y-12050000D03*
D33*
X20700000Y-11550000D03*
%TD*%
%TO.C,RN4*%
X19700000Y-14150000D03*
D34*
X19700000Y-14650000D03*
X19700000Y-15150000D03*
D33*
X19700000Y-15650000D03*
X20700000Y-15650000D03*
D34*
X20700000Y-15150000D03*
X20700000Y-14650000D03*
D33*
X20700000Y-14150000D03*
%TD*%
%TO.C,RN5*%
X19700000Y-16350000D03*
D34*
X19700000Y-16850000D03*
X19700000Y-17350000D03*
D33*
X19700000Y-17850000D03*
X20700000Y-17850000D03*
D34*
X20700000Y-17350000D03*
X20700000Y-16850000D03*
D33*
X20700000Y-16350000D03*
%TD*%
%TO.C,RN6*%
X20200000Y-18550000D03*
D34*
X20200000Y-19050000D03*
X20200000Y-19550000D03*
D33*
X20200000Y-20050000D03*
X21200000Y-20050000D03*
D34*
X21200000Y-19550000D03*
X21200000Y-19050000D03*
D33*
X21200000Y-18550000D03*
%TD*%
D35*
%TO.C,D5*%
X60700000Y-18185000D03*
X60700000Y-17215000D03*
%TD*%
%TO.C,D6*%
X61700000Y-18185000D03*
X61700000Y-17215000D03*
%TD*%
D32*
%TO.C,R16*%
X57156048Y-17956048D03*
X57643952Y-18443952D03*
%TD*%
D36*
%TO.C,D4*%
X58975000Y-17475000D03*
X59825000Y-17475000D03*
X59825000Y-18325000D03*
X58975000Y-18325000D03*
%TD*%
D20*
%TO.C,R19*%
X61555000Y-19000000D03*
X62245000Y-19000000D03*
%TD*%
D31*
%TO.C,RN12*%
X69050000Y-17300000D03*
X68350000Y-17300000D03*
X68350000Y-18300000D03*
X69050000Y-18300000D03*
%TD*%
D20*
%TO.C,C38*%
X18755000Y-19300000D03*
X19445000Y-19300000D03*
%TD*%
D23*
%TO.C,AE1*%
X16000000Y-21000000D03*
D37*
X17500000Y-22475000D03*
X17500000Y-19525000D03*
D23*
X19000000Y-21000000D03*
%TD*%
D20*
%TO.C,C40*%
X20645000Y-22400000D03*
X19955000Y-22400000D03*
%TD*%
D33*
%TO.C,RN8*%
X21400000Y-20750000D03*
D34*
X21400000Y-21250000D03*
X21400000Y-21750000D03*
D33*
X21400000Y-22250000D03*
X22400000Y-22250000D03*
D34*
X22400000Y-21750000D03*
X22400000Y-21250000D03*
D33*
X22400000Y-20750000D03*
%TD*%
D38*
%TO.C,U2*%
X86750000Y-3800000D03*
X86250000Y-3800000D03*
X85750000Y-3800000D03*
X85250000Y-3800000D03*
X84750000Y-3800000D03*
X84750000Y-8200000D03*
X85250000Y-8200000D03*
X85750000Y-8200000D03*
X86250000Y-8200000D03*
X86750000Y-8200000D03*
%TD*%
D27*
%TO.C,D12*%
X65000000Y-20455000D03*
X65000000Y-21145000D03*
%TD*%
%TO.C,D14*%
X66000000Y-21145000D03*
X66000000Y-20455000D03*
%TD*%
%TO.C,D9*%
X81800000Y-21145000D03*
X81800000Y-20455000D03*
%TD*%
D20*
%TO.C,C23*%
X78980000Y-8100000D03*
X79670000Y-8100000D03*
%TD*%
D39*
%TO.C,X3*%
X79975000Y-9200000D03*
X78225000Y-9200000D03*
X78225000Y-10600000D03*
X79975000Y-10600000D03*
%TD*%
D19*
%TO.C,C85*%
X18100000Y-8320000D03*
X18100000Y-9280000D03*
%TD*%
D14*
%TO.C,C86*%
X18800000Y-8405000D03*
X18800000Y-9095000D03*
%TD*%
D20*
%TO.C,FB4*%
X17470000Y-8400000D03*
X16780000Y-8400000D03*
%TD*%
D14*
%TO.C,D13*%
X85800000Y-2545000D03*
X85800000Y-1855000D03*
%TD*%
D20*
%TO.C,D10*%
X83155000Y-21000000D03*
X83845000Y-21000000D03*
%TD*%
D10*
%TO.C,D7*%
X48315000Y-22350000D03*
X49285000Y-22350000D03*
%TD*%
D20*
%TO.C,R20*%
X50745000Y-22400000D03*
X50055000Y-22400000D03*
%TD*%
D40*
%TO.C,J1*%
X15300000Y-10500000D03*
X15300000Y-9400000D03*
X15300000Y-8300000D03*
X15300000Y-7200000D03*
X15300000Y-6100000D03*
X15300000Y-5000000D03*
X15300000Y-3900000D03*
X15300000Y-2800000D03*
X15300000Y-1700000D03*
D11*
X14450000Y-600000D03*
D41*
X4750000Y-600000D03*
D11*
X14450000Y-15280000D03*
D41*
X4750000Y-16120000D03*
%TD*%
D33*
%TO.C,RN3*%
X83100000Y-5750000D03*
X83100000Y-5050000D03*
X82100000Y-5050000D03*
X82100000Y-5750000D03*
%TD*%
%TO.C,RN11*%
X86550000Y-10500000D03*
X86550000Y-11200000D03*
X87550000Y-11200000D03*
X87550000Y-10500000D03*
%TD*%
D17*
%TO.C,C24*%
X80270000Y-8100000D03*
X81230000Y-8100000D03*
%TD*%
D14*
%TO.C,FB1*%
X80200000Y-11755000D03*
X80200000Y-12445000D03*
%TD*%
D31*
%TO.C,RN10*%
X55250000Y-2200000D03*
D42*
X54750000Y-2200000D03*
X54250000Y-2200000D03*
D31*
X53750000Y-2200000D03*
X53750000Y-3200000D03*
D42*
X54250000Y-3200000D03*
X54750000Y-3200000D03*
D31*
X55250000Y-3200000D03*
%TD*%
D27*
%TO.C,R9*%
X21900000Y-5845000D03*
X21900000Y-5155000D03*
%TD*%
M02*
