%TF.GenerationSoftware,KiCad,Pcbnew,(6.0.2)*%
%TF.CreationDate,2022-03-22T23:14:37+08:00*%
%TF.ProjectId,som,736f6d2e-6b69-4636-9164-5f7063625858,V0R1*%
%TF.SameCoordinates,Original*%
%TF.FileFunction,Soldermask,Top*%
%TF.FilePolarity,Negative*%
%FSLAX46Y46*%
G04 Gerber Fmt 4.6, Leading zero omitted, Abs format (unit mm)*
G04 Created by KiCad (PCBNEW (6.0.2)) date 2022-03-22 23:14:37*
%MOMM*%
%LPD*%
G01*
G04 APERTURE LIST*
G04 Aperture macros list*
%AMRoundRect*
0 Rectangle with rounded corners*
0 $1 Rounding radius*
0 $2 $3 $4 $5 $6 $7 $8 $9 X,Y pos of 4 corners*
0 Add a 4 corners polygon primitive as box body*
4,1,4,$2,$3,$4,$5,$6,$7,$8,$9,$2,$3,0*
0 Add four circle primitives for the rounded corners*
1,1,$1+$1,$2,$3*
1,1,$1+$1,$4,$5*
1,1,$1+$1,$6,$7*
1,1,$1+$1,$8,$9*
0 Add four rect primitives between the rounded corners*
20,1,$1+$1,$2,$3,$4,$5,0*
20,1,$1+$1,$4,$5,$6,$7,0*
20,1,$1+$1,$6,$7,$8,$9,0*
20,1,$1+$1,$8,$9,$2,$3,0*%
G04 Aperture macros list end*
%ADD10C,0.000000*%
%ADD11RoundRect,0.147500X-0.147500X-0.172500X0.147500X-0.172500X0.147500X0.172500X-0.147500X0.172500X0*%
%ADD12R,1.400000X1.200000*%
%ADD13RoundRect,0.140000X0.170000X-0.140000X0.170000X0.140000X-0.170000X0.140000X-0.170000X-0.140000X0*%
%ADD14RoundRect,0.225000X-0.250000X0.225000X-0.250000X-0.225000X0.250000X-0.225000X0.250000X0.225000X0*%
%ADD15RoundRect,0.100000X-0.100000X0.130000X-0.100000X-0.130000X0.100000X-0.130000X0.100000X0.130000X0*%
%ADD16RoundRect,0.243750X-0.243750X-0.656250X0.243750X-0.656250X0.243750X0.656250X-0.243750X0.656250X0*%
%ADD17RoundRect,0.140000X0.140000X0.170000X-0.140000X0.170000X-0.140000X-0.170000X0.140000X-0.170000X0*%
%ADD18RoundRect,0.140000X-0.140000X-0.170000X0.140000X-0.170000X0.140000X0.170000X-0.140000X0.170000X0*%
%ADD19RoundRect,0.243750X0.243750X0.656250X-0.243750X0.656250X-0.243750X-0.656250X0.243750X-0.656250X0*%
%ADD20RoundRect,0.140000X-0.170000X0.140000X-0.170000X-0.140000X0.170000X-0.140000X0.170000X0.140000X0*%
%ADD21RoundRect,0.100000X0.130000X0.100000X-0.130000X0.100000X-0.130000X-0.100000X0.130000X-0.100000X0*%
%ADD22C,0.400000*%
%ADD23RoundRect,0.100000X-0.130000X-0.100000X0.130000X-0.100000X0.130000X0.100000X-0.130000X0.100000X0*%
%ADD24R,0.800000X0.220000*%
%ADD25R,0.220000X0.800000*%
%ADD26C,0.500000*%
%ADD27R,3.600000X4.600000*%
%ADD28RoundRect,0.147500X0.147500X0.172500X-0.147500X0.172500X-0.147500X-0.172500X0.147500X-0.172500X0*%
%ADD29RoundRect,0.100000X0.100000X-0.130000X0.100000X0.130000X-0.100000X0.130000X-0.100000X-0.130000X0*%
%ADD30RoundRect,0.062500X0.062500X-0.375000X0.062500X0.375000X-0.062500X0.375000X-0.062500X-0.375000X0*%
%ADD31RoundRect,0.062500X0.375000X-0.062500X0.375000X0.062500X-0.375000X0.062500X-0.375000X-0.062500X0*%
%ADD32R,3.450000X3.450000*%
%ADD33R,0.400000X0.500000*%
%ADD34RoundRect,0.100000X-0.162635X0.021213X0.021213X-0.162635X0.162635X-0.021213X-0.021213X0.162635X0*%
%ADD35R,0.500000X0.400000*%
%ADD36R,0.500000X0.300000*%
%ADD37RoundRect,0.147500X0.172500X-0.147500X0.172500X0.147500X-0.172500X0.147500X-0.172500X-0.147500X0*%
%ADD38RoundRect,0.112500X-0.112500X-0.112500X0.112500X-0.112500X0.112500X0.112500X-0.112500X0.112500X0*%
%ADD39R,1.000000X1.000000*%
%ADD40R,2.200000X1.050000*%
%ADD41R,0.300000X1.400000*%
%ADD42R,1.150000X1.000000*%
%ADD43C,0.900000*%
%ADD44R,1.300000X0.700000*%
%ADD45R,2.000000X1.200000*%
%ADD46R,0.300000X0.500000*%
%ADD47C,1.000000*%
%ADD48R,0.850000X0.850000*%
%ADD49O,0.850000X0.850000*%
%ADD50C,0.850000*%
G04 APERTURE END LIST*
D10*
G36*
X8400000Y-5350000D02*
G01*
X8200000Y-5350000D01*
X8200000Y-5150000D01*
X8400000Y-5150000D01*
X8400000Y-5350000D01*
G37*
G36*
X8600000Y-5150000D02*
G01*
X8400000Y-5150000D01*
X8400000Y-4950000D01*
X8600000Y-4950000D01*
X8600000Y-5150000D01*
G37*
D11*
%TO.C,D2*%
X45415000Y-22350000D03*
X46385000Y-22350000D03*
%TD*%
D12*
%TO.C,X4*%
X18500000Y-7250000D03*
X20700000Y-7250000D03*
X20700000Y-5550000D03*
X18500000Y-5550000D03*
%TD*%
D13*
%TO.C,C115*%
X69000000Y-6180000D03*
X69000000Y-5220000D03*
%TD*%
D14*
%TO.C,C100*%
X74000000Y-10025000D03*
X74000000Y-11575000D03*
%TD*%
D15*
%TO.C,C118*%
X67300000Y-17805000D03*
X67300000Y-18445000D03*
%TD*%
D16*
%TO.C,L3*%
X70962500Y-11100000D03*
X72837500Y-11100000D03*
%TD*%
D17*
%TO.C,C101*%
X73480000Y-9700000D03*
X72520000Y-9700000D03*
%TD*%
D18*
%TO.C,C106*%
X59520000Y-13300000D03*
X60480000Y-13300000D03*
%TD*%
D19*
%TO.C,L5*%
X62037500Y-11500000D03*
X60162500Y-11500000D03*
%TD*%
D16*
%TO.C,L2*%
X70962500Y-14300000D03*
X72837500Y-14300000D03*
%TD*%
D20*
%TO.C,C119*%
X64800000Y-17720000D03*
X64800000Y-18680000D03*
%TD*%
D13*
%TO.C,C109*%
X63000000Y-6180000D03*
X63000000Y-5220000D03*
%TD*%
D20*
%TO.C,C116*%
X65700000Y-17720000D03*
X65700000Y-18680000D03*
%TD*%
D14*
%TO.C,C105*%
X59000000Y-13625000D03*
X59000000Y-15175000D03*
%TD*%
%TO.C,C107*%
X59000000Y-10425000D03*
X59000000Y-11975000D03*
%TD*%
D20*
%TO.C,C117*%
X66600000Y-17720000D03*
X66600000Y-18680000D03*
%TD*%
D17*
%TO.C,C98*%
X73480000Y-12900000D03*
X72520000Y-12900000D03*
%TD*%
D13*
%TO.C,C103*%
X68000000Y-6180000D03*
X68000000Y-5220000D03*
%TD*%
D14*
%TO.C,C97*%
X74000000Y-13225000D03*
X74000000Y-14775000D03*
%TD*%
D19*
%TO.C,L4*%
X62037500Y-14700000D03*
X60162500Y-14700000D03*
%TD*%
D18*
%TO.C,C108*%
X59520000Y-10100000D03*
X60480000Y-10100000D03*
%TD*%
D13*
%TO.C,C110*%
X62000000Y-6180000D03*
X62000000Y-5220000D03*
%TD*%
D21*
%TO.C,C36*%
X18920000Y-17400000D03*
X18280000Y-17400000D03*
%TD*%
D13*
%TO.C,C113*%
X67000000Y-6180000D03*
X67000000Y-5220000D03*
%TD*%
D17*
%TO.C,C102*%
X62180000Y-10100000D03*
X61220000Y-10100000D03*
%TD*%
D13*
%TO.C,C114*%
X65000000Y-6180000D03*
X65000000Y-5220000D03*
%TD*%
D21*
%TO.C,C34*%
X18920000Y-15200000D03*
X18280000Y-15200000D03*
%TD*%
D13*
%TO.C,C111*%
X64000000Y-6180000D03*
X64000000Y-5220000D03*
%TD*%
D21*
%TO.C,C30*%
X18920000Y-10900000D03*
X18280000Y-10900000D03*
%TD*%
D18*
%TO.C,C99*%
X70820000Y-12900000D03*
X71780000Y-12900000D03*
%TD*%
%TO.C,C96*%
X70820000Y-9700000D03*
X71780000Y-9700000D03*
%TD*%
D21*
%TO.C,C32*%
X18920000Y-12700000D03*
X18280000Y-12700000D03*
%TD*%
D17*
%TO.C,C104*%
X62180000Y-13300000D03*
X61220000Y-13300000D03*
%TD*%
D13*
%TO.C,C112*%
X66000000Y-6180000D03*
X66000000Y-5220000D03*
%TD*%
D21*
%TO.C,C17*%
X30620000Y-5500000D03*
X29980000Y-5500000D03*
%TD*%
D22*
%TO.C,U6*%
X36200000Y-7300000D03*
X36200000Y-8100000D03*
X36200000Y-8900000D03*
X36200000Y-12100000D03*
X36200000Y-12900000D03*
X36200000Y-13700000D03*
X35400000Y-7300000D03*
X35400000Y-8100000D03*
X35400000Y-8900000D03*
X35400000Y-12100000D03*
X35400000Y-12900000D03*
X35400000Y-13700000D03*
X34600000Y-7300000D03*
X34600000Y-8100000D03*
X34600000Y-8900000D03*
X34600000Y-12100000D03*
X34600000Y-12900000D03*
X34600000Y-13700000D03*
X33800000Y-7300000D03*
X33800000Y-8100000D03*
X33800000Y-8900000D03*
X33800000Y-12100000D03*
X33800000Y-12900000D03*
X33800000Y-13700000D03*
X33000000Y-7300000D03*
X33000000Y-8100000D03*
X33000000Y-8900000D03*
X33000000Y-12100000D03*
X33000000Y-12900000D03*
X33000000Y-13700000D03*
X32200000Y-7300000D03*
X32200000Y-8100000D03*
X32200000Y-8900000D03*
X32200000Y-12100000D03*
X32200000Y-12900000D03*
X32200000Y-13700000D03*
X31400000Y-7300000D03*
X31400000Y-8100000D03*
X31400000Y-8900000D03*
X31400000Y-12100000D03*
X31400000Y-12900000D03*
X31400000Y-13700000D03*
X30600000Y-7300000D03*
X30600000Y-8100000D03*
X30600000Y-8900000D03*
X30600000Y-12100000D03*
X30600000Y-12900000D03*
X30600000Y-13700000D03*
X29800000Y-7300000D03*
X29800000Y-8100000D03*
X29800000Y-8900000D03*
X29800000Y-12100000D03*
X29800000Y-12900000D03*
X29800000Y-13700000D03*
X29000000Y-7300000D03*
X29000000Y-8100000D03*
X29000000Y-8900000D03*
X29000000Y-12100000D03*
X29000000Y-12900000D03*
X29000000Y-13700000D03*
X28200000Y-7300000D03*
X28200000Y-8100000D03*
X28200000Y-8900000D03*
X28200000Y-12100000D03*
X28200000Y-12900000D03*
X28200000Y-13700000D03*
X27400000Y-7300000D03*
X27400000Y-8100000D03*
X27400000Y-8900000D03*
X27400000Y-12100000D03*
X27400000Y-12900000D03*
X27400000Y-13700000D03*
X26600000Y-7300000D03*
X26600000Y-8100000D03*
X26600000Y-8900000D03*
X26600000Y-12100000D03*
X26600000Y-12900000D03*
X26600000Y-13700000D03*
X25800000Y-7300000D03*
X25800000Y-8100000D03*
X25800000Y-8900000D03*
X25800000Y-12100000D03*
X25800000Y-12900000D03*
X25800000Y-13700000D03*
X25000000Y-7300000D03*
X25000000Y-8100000D03*
X25000000Y-8900000D03*
X25000000Y-12100000D03*
X25000000Y-12900000D03*
X25000000Y-13700000D03*
X24200000Y-7300000D03*
X24200000Y-8100000D03*
X24200000Y-8900000D03*
X24200000Y-12100000D03*
X24200000Y-12900000D03*
X24200000Y-13700000D03*
%TD*%
D23*
%TO.C,R2*%
X26780000Y-5500000D03*
X27420000Y-5500000D03*
%TD*%
D17*
%TO.C,C41*%
X20780000Y-21800000D03*
X19820000Y-21800000D03*
%TD*%
D24*
%TO.C,U7*%
X69000000Y-15500000D03*
X69000000Y-15100000D03*
X69000000Y-14700000D03*
X69000000Y-14300000D03*
X69000000Y-13900000D03*
X69000000Y-13500000D03*
X69000000Y-13100000D03*
X69000000Y-12700000D03*
X69000000Y-12300000D03*
X69000000Y-11900000D03*
X69000000Y-11500000D03*
X69000000Y-11100000D03*
D25*
X68300000Y-10300000D03*
X67900000Y-10300000D03*
X67500000Y-10300000D03*
X67100000Y-10300000D03*
X66700000Y-10300000D03*
X66300000Y-10300000D03*
X65900000Y-10300000D03*
X65500000Y-10300000D03*
X65100000Y-10300000D03*
X64700000Y-10300000D03*
D24*
X64000000Y-11100000D03*
X64000000Y-11500000D03*
X64000000Y-11900000D03*
X64000000Y-12300000D03*
X64000000Y-12700000D03*
X64000000Y-13100000D03*
X64000000Y-13500000D03*
X64000000Y-13900000D03*
X64000000Y-14300000D03*
X64000000Y-14700000D03*
X64000000Y-15100000D03*
X64000000Y-15500000D03*
D25*
X64700000Y-16300000D03*
X65100000Y-16300000D03*
X65500000Y-16300000D03*
X65900000Y-16300000D03*
X66300000Y-16300000D03*
X66700000Y-16300000D03*
X67100000Y-16300000D03*
X67500000Y-16300000D03*
X67900000Y-16300000D03*
X68300000Y-16300000D03*
D26*
X66500000Y-13700000D03*
X67250000Y-14500000D03*
X65000000Y-13700000D03*
X68000000Y-13700000D03*
X68000000Y-11300000D03*
X66500000Y-12900000D03*
X67250000Y-12100000D03*
X68000000Y-14500000D03*
X68000000Y-12100000D03*
X65000000Y-12100000D03*
X65000000Y-14500000D03*
X65750000Y-13700000D03*
X65750000Y-12100000D03*
X65000000Y-15300000D03*
X65750000Y-15300000D03*
X67250000Y-15300000D03*
X66500000Y-12100000D03*
X65750000Y-11300000D03*
D27*
X66500000Y-13300000D03*
D26*
X65750000Y-12900000D03*
X66500000Y-11300000D03*
X68000000Y-15300000D03*
X67250000Y-12900000D03*
X67250000Y-11300000D03*
X67250000Y-13700000D03*
X66500000Y-15300000D03*
X68000000Y-12900000D03*
X65750000Y-14500000D03*
X65000000Y-12900000D03*
X65000000Y-11300000D03*
X66500000Y-14500000D03*
%TD*%
D17*
%TO.C,C37*%
X19080000Y-16700000D03*
X18120000Y-16700000D03*
%TD*%
%TO.C,C35*%
X19080000Y-14500000D03*
X18120000Y-14500000D03*
%TD*%
%TO.C,C33*%
X19080000Y-12000000D03*
X18120000Y-12000000D03*
%TD*%
%TO.C,C39*%
X19580000Y-18600000D03*
X18620000Y-18600000D03*
%TD*%
%TO.C,C31*%
X19080000Y-10200000D03*
X18120000Y-10200000D03*
%TD*%
D28*
%TO.C,D3*%
X44585000Y-22350000D03*
X43615000Y-22350000D03*
%TD*%
D22*
%TO.C,U1*%
X39400000Y-5700000D03*
X40200000Y-5700000D03*
X41000000Y-5700000D03*
X41800000Y-5700000D03*
X42600000Y-5700000D03*
X43400000Y-5700000D03*
X44200000Y-5700000D03*
X45000000Y-5700000D03*
X45800000Y-5700000D03*
X46600000Y-5700000D03*
X47400000Y-5700000D03*
X48200000Y-5700000D03*
X49000000Y-5700000D03*
X49800000Y-5700000D03*
X50600000Y-5700000D03*
X51400000Y-5700000D03*
X52200000Y-5700000D03*
X53000000Y-5700000D03*
X53800000Y-5700000D03*
X54600000Y-5700000D03*
X39400000Y-6500000D03*
X40200000Y-6500000D03*
X41000000Y-6500000D03*
X41800000Y-6500000D03*
X42600000Y-6500000D03*
X43400000Y-6500000D03*
X44200000Y-6500000D03*
X45000000Y-6500000D03*
X45800000Y-6500000D03*
X46600000Y-6500000D03*
X47400000Y-6500000D03*
X48200000Y-6500000D03*
X49000000Y-6500000D03*
X49800000Y-6500000D03*
X50600000Y-6500000D03*
X51400000Y-6500000D03*
X52200000Y-6500000D03*
X53000000Y-6500000D03*
X53800000Y-6500000D03*
X54600000Y-6500000D03*
X39400000Y-7300000D03*
X40200000Y-7300000D03*
X41000000Y-7300000D03*
X41800000Y-7300000D03*
X42600000Y-7300000D03*
X43400000Y-7300000D03*
X44200000Y-7300000D03*
X45000000Y-7300000D03*
X45800000Y-7300000D03*
X46600000Y-7300000D03*
X47400000Y-7300000D03*
X48200000Y-7300000D03*
X49000000Y-7300000D03*
X49800000Y-7300000D03*
X50600000Y-7300000D03*
X51400000Y-7300000D03*
X52200000Y-7300000D03*
X53000000Y-7300000D03*
X53800000Y-7300000D03*
X54600000Y-7300000D03*
X39400000Y-8100000D03*
X40200000Y-8100000D03*
X41000000Y-8100000D03*
X41800000Y-8100000D03*
X42600000Y-8100000D03*
X43400000Y-8100000D03*
X44200000Y-8100000D03*
X45000000Y-8100000D03*
X45800000Y-8100000D03*
X46600000Y-8100000D03*
X47400000Y-8100000D03*
X48200000Y-8100000D03*
X49000000Y-8100000D03*
X49800000Y-8100000D03*
X50600000Y-8100000D03*
X51400000Y-8100000D03*
X52200000Y-8100000D03*
X53000000Y-8100000D03*
X53800000Y-8100000D03*
X54600000Y-8100000D03*
X39400000Y-8900000D03*
X40200000Y-8900000D03*
X41000000Y-8900000D03*
X41800000Y-8900000D03*
X42600000Y-8900000D03*
X43400000Y-8900000D03*
X44200000Y-8900000D03*
X45000000Y-8900000D03*
X45800000Y-8900000D03*
X46600000Y-8900000D03*
X47400000Y-8900000D03*
X48200000Y-8900000D03*
X49000000Y-8900000D03*
X49800000Y-8900000D03*
X50600000Y-8900000D03*
X51400000Y-8900000D03*
X52200000Y-8900000D03*
X53000000Y-8900000D03*
X53800000Y-8900000D03*
X54600000Y-8900000D03*
X39400000Y-9700000D03*
X40200000Y-9700000D03*
X41000000Y-9700000D03*
X41800000Y-9700000D03*
X42600000Y-9700000D03*
X43400000Y-9700000D03*
X44200000Y-9700000D03*
X45000000Y-9700000D03*
X45800000Y-9700000D03*
X46600000Y-9700000D03*
X47400000Y-9700000D03*
X48200000Y-9700000D03*
X49000000Y-9700000D03*
X49800000Y-9700000D03*
X50600000Y-9700000D03*
X51400000Y-9700000D03*
X52200000Y-9700000D03*
X53000000Y-9700000D03*
X53800000Y-9700000D03*
X54600000Y-9700000D03*
X39400000Y-10500000D03*
X40200000Y-10500000D03*
X41000000Y-10500000D03*
X41800000Y-10500000D03*
X42600000Y-10500000D03*
X43400000Y-10500000D03*
X44200000Y-10500000D03*
X45000000Y-10500000D03*
X45800000Y-10500000D03*
X46600000Y-10500000D03*
X47400000Y-10500000D03*
X48200000Y-10500000D03*
X49000000Y-10500000D03*
X49800000Y-10500000D03*
X50600000Y-10500000D03*
X51400000Y-10500000D03*
X52200000Y-10500000D03*
X53000000Y-10500000D03*
X53800000Y-10500000D03*
X54600000Y-10500000D03*
X39400000Y-11300000D03*
X40200000Y-11300000D03*
X41000000Y-11300000D03*
X41800000Y-11300000D03*
X42600000Y-11300000D03*
X43400000Y-11300000D03*
X44200000Y-11300000D03*
X45000000Y-11300000D03*
X45800000Y-11300000D03*
X46600000Y-11300000D03*
X47400000Y-11300000D03*
X48200000Y-11300000D03*
X49000000Y-11300000D03*
X49800000Y-11300000D03*
X50600000Y-11300000D03*
X51400000Y-11300000D03*
X52200000Y-11300000D03*
X53000000Y-11300000D03*
X53800000Y-11300000D03*
X54600000Y-11300000D03*
X39400000Y-12100000D03*
X40200000Y-12100000D03*
X41000000Y-12100000D03*
X41800000Y-12100000D03*
X42600000Y-12100000D03*
X43400000Y-12100000D03*
X44200000Y-12100000D03*
X45000000Y-12100000D03*
X45800000Y-12100000D03*
X46600000Y-12100000D03*
X47400000Y-12100000D03*
X48200000Y-12100000D03*
X49000000Y-12100000D03*
X49800000Y-12100000D03*
X50600000Y-12100000D03*
X51400000Y-12100000D03*
X52200000Y-12100000D03*
X53000000Y-12100000D03*
X53800000Y-12100000D03*
X54600000Y-12100000D03*
X39400000Y-12900000D03*
X40200000Y-12900000D03*
X41000000Y-12900000D03*
X41800000Y-12900000D03*
X42600000Y-12900000D03*
X43400000Y-12900000D03*
X44200000Y-12900000D03*
X45000000Y-12900000D03*
X45800000Y-12900000D03*
X46600000Y-12900000D03*
X47400000Y-12900000D03*
X48200000Y-12900000D03*
X49000000Y-12900000D03*
X49800000Y-12900000D03*
X50600000Y-12900000D03*
X51400000Y-12900000D03*
X52200000Y-12900000D03*
X53000000Y-12900000D03*
X53800000Y-12900000D03*
X54600000Y-12900000D03*
X39400000Y-13700000D03*
X40200000Y-13700000D03*
X41000000Y-13700000D03*
X41800000Y-13700000D03*
X42600000Y-13700000D03*
X43400000Y-13700000D03*
X44200000Y-13700000D03*
X45000000Y-13700000D03*
X45800000Y-13700000D03*
X46600000Y-13700000D03*
X47400000Y-13700000D03*
X48200000Y-13700000D03*
X49000000Y-13700000D03*
X49800000Y-13700000D03*
X50600000Y-13700000D03*
X51400000Y-13700000D03*
X52200000Y-13700000D03*
X53000000Y-13700000D03*
X53800000Y-13700000D03*
X54600000Y-13700000D03*
X39400000Y-14500000D03*
X40200000Y-14500000D03*
X41000000Y-14500000D03*
X41800000Y-14500000D03*
X42600000Y-14500000D03*
X43400000Y-14500000D03*
X44200000Y-14500000D03*
X45000000Y-14500000D03*
X45800000Y-14500000D03*
X46600000Y-14500000D03*
X47400000Y-14500000D03*
X48200000Y-14500000D03*
X49000000Y-14500000D03*
X49800000Y-14500000D03*
X50600000Y-14500000D03*
X51400000Y-14500000D03*
X52200000Y-14500000D03*
X53000000Y-14500000D03*
X53800000Y-14500000D03*
X54600000Y-14500000D03*
X39400000Y-15300000D03*
X40200000Y-15300000D03*
X41000000Y-15300000D03*
X41800000Y-15300000D03*
X42600000Y-15300000D03*
X43400000Y-15300000D03*
X44200000Y-15300000D03*
X45000000Y-15300000D03*
X45800000Y-15300000D03*
X46600000Y-15300000D03*
X47400000Y-15300000D03*
X48200000Y-15300000D03*
X49000000Y-15300000D03*
X49800000Y-15300000D03*
X50600000Y-15300000D03*
X51400000Y-15300000D03*
X52200000Y-15300000D03*
X53000000Y-15300000D03*
X53800000Y-15300000D03*
X54600000Y-15300000D03*
X39400000Y-16100000D03*
X40200000Y-16100000D03*
X41000000Y-16100000D03*
X41800000Y-16100000D03*
X42600000Y-16100000D03*
X43400000Y-16100000D03*
X44200000Y-16100000D03*
X45000000Y-16100000D03*
X45800000Y-16100000D03*
X46600000Y-16100000D03*
X47400000Y-16100000D03*
X48200000Y-16100000D03*
X49000000Y-16100000D03*
X49800000Y-16100000D03*
X50600000Y-16100000D03*
X51400000Y-16100000D03*
X52200000Y-16100000D03*
X53000000Y-16100000D03*
X53800000Y-16100000D03*
X54600000Y-16100000D03*
X39400000Y-16900000D03*
X40200000Y-16900000D03*
X41000000Y-16900000D03*
X41800000Y-16900000D03*
X42600000Y-16900000D03*
X43400000Y-16900000D03*
X44200000Y-16900000D03*
X45000000Y-16900000D03*
X45800000Y-16900000D03*
X46600000Y-16900000D03*
X47400000Y-16900000D03*
X48200000Y-16900000D03*
X49000000Y-16900000D03*
X49800000Y-16900000D03*
X50600000Y-16900000D03*
X51400000Y-16900000D03*
X52200000Y-16900000D03*
X53000000Y-16900000D03*
X53800000Y-16900000D03*
X54600000Y-16900000D03*
X39400000Y-17700000D03*
X40200000Y-17700000D03*
X41000000Y-17700000D03*
X41800000Y-17700000D03*
X42600000Y-17700000D03*
X43400000Y-17700000D03*
X44200000Y-17700000D03*
X45000000Y-17700000D03*
X45800000Y-17700000D03*
X46600000Y-17700000D03*
X47400000Y-17700000D03*
X48200000Y-17700000D03*
X49000000Y-17700000D03*
X49800000Y-17700000D03*
X50600000Y-17700000D03*
X51400000Y-17700000D03*
X52200000Y-17700000D03*
X53000000Y-17700000D03*
X53800000Y-17700000D03*
X54600000Y-17700000D03*
X39400000Y-18500000D03*
X40200000Y-18500000D03*
X41000000Y-18500000D03*
X41800000Y-18500000D03*
X42600000Y-18500000D03*
X43400000Y-18500000D03*
X44200000Y-18500000D03*
X45000000Y-18500000D03*
X45800000Y-18500000D03*
X46600000Y-18500000D03*
X47400000Y-18500000D03*
X48200000Y-18500000D03*
X49000000Y-18500000D03*
X49800000Y-18500000D03*
X50600000Y-18500000D03*
X51400000Y-18500000D03*
X52200000Y-18500000D03*
X53000000Y-18500000D03*
X53800000Y-18500000D03*
X54600000Y-18500000D03*
X39400000Y-19300000D03*
X40200000Y-19300000D03*
X41000000Y-19300000D03*
X41800000Y-19300000D03*
X42600000Y-19300000D03*
X43400000Y-19300000D03*
X44200000Y-19300000D03*
X45000000Y-19300000D03*
X45800000Y-19300000D03*
X46600000Y-19300000D03*
X47400000Y-19300000D03*
X48200000Y-19300000D03*
X49000000Y-19300000D03*
X49800000Y-19300000D03*
X50600000Y-19300000D03*
X51400000Y-19300000D03*
X52200000Y-19300000D03*
X53000000Y-19300000D03*
X53800000Y-19300000D03*
X54600000Y-19300000D03*
X39400000Y-20100000D03*
X40200000Y-20100000D03*
X41000000Y-20100000D03*
X41800000Y-20100000D03*
X42600000Y-20100000D03*
X43400000Y-20100000D03*
X44200000Y-20100000D03*
X45000000Y-20100000D03*
X45800000Y-20100000D03*
X46600000Y-20100000D03*
X47400000Y-20100000D03*
X48200000Y-20100000D03*
X49000000Y-20100000D03*
X49800000Y-20100000D03*
X50600000Y-20100000D03*
X51400000Y-20100000D03*
X52200000Y-20100000D03*
X53000000Y-20100000D03*
X53800000Y-20100000D03*
X54600000Y-20100000D03*
X39400000Y-20900000D03*
X40200000Y-20900000D03*
X41000000Y-20900000D03*
X41800000Y-20900000D03*
X42600000Y-20900000D03*
X43400000Y-20900000D03*
X44200000Y-20900000D03*
X45000000Y-20900000D03*
X45800000Y-20900000D03*
X46600000Y-20900000D03*
X47400000Y-20900000D03*
X48200000Y-20900000D03*
X49000000Y-20900000D03*
X49800000Y-20900000D03*
X50600000Y-20900000D03*
X51400000Y-20900000D03*
X52200000Y-20900000D03*
X53000000Y-20900000D03*
X53800000Y-20900000D03*
X54600000Y-20900000D03*
%TD*%
D29*
%TO.C,R14*%
X47800000Y-4220000D03*
X47800000Y-3580000D03*
%TD*%
D15*
%TO.C,D15*%
X87200000Y-1880000D03*
X87200000Y-2520000D03*
%TD*%
D23*
%TO.C,D11*%
X85180000Y-21000000D03*
X85820000Y-21000000D03*
%TD*%
D15*
%TO.C,D8*%
X82000000Y-1880000D03*
X82000000Y-2520000D03*
%TD*%
D21*
%TO.C,C9*%
X87245000Y-14700000D03*
X86605000Y-14700000D03*
%TD*%
D23*
%TO.C,C6*%
X86605000Y-14000000D03*
X87245000Y-14000000D03*
%TD*%
D21*
%TO.C,R5*%
X79295000Y-18300000D03*
X78655000Y-18300000D03*
%TD*%
%TO.C,C7*%
X79295000Y-17600000D03*
X78655000Y-17600000D03*
%TD*%
%TO.C,C5*%
X79295000Y-13400000D03*
X78655000Y-13400000D03*
%TD*%
D23*
%TO.C,C8*%
X78655000Y-14100000D03*
X79295000Y-14100000D03*
%TD*%
%TO.C,C13*%
X78655000Y-16900000D03*
X79295000Y-16900000D03*
%TD*%
D21*
%TO.C,C4*%
X83720000Y-20000000D03*
X83080000Y-20000000D03*
%TD*%
D30*
%TO.C,U3*%
X81250000Y-18437500D03*
X81750000Y-18437500D03*
X82250000Y-18437500D03*
X82750000Y-18437500D03*
X83250000Y-18437500D03*
X83750000Y-18437500D03*
X84250000Y-18437500D03*
X84750000Y-18437500D03*
D31*
X85437500Y-17750000D03*
X85437500Y-17250000D03*
X85437500Y-16750000D03*
X85437500Y-16250000D03*
X85437500Y-15750000D03*
X85437500Y-15250000D03*
X85437500Y-14750000D03*
X85437500Y-14250000D03*
D30*
X84750000Y-13562500D03*
X84250000Y-13562500D03*
X83750000Y-13562500D03*
X83250000Y-13562500D03*
X82750000Y-13562500D03*
X82250000Y-13562500D03*
X81750000Y-13562500D03*
X81250000Y-13562500D03*
D31*
X80562500Y-14250000D03*
X80562500Y-14750000D03*
X80562500Y-15250000D03*
X80562500Y-15750000D03*
X80562500Y-16250000D03*
X80562500Y-16750000D03*
X80562500Y-17250000D03*
X80562500Y-17750000D03*
D32*
X83000000Y-16000000D03*
%TD*%
D18*
%TO.C,C11*%
X78420000Y-14900000D03*
X79380000Y-14900000D03*
%TD*%
%TO.C,C14*%
X78420000Y-16100000D03*
X79380000Y-16100000D03*
%TD*%
D33*
%TO.C,RN7*%
X77350000Y-12800000D03*
X78050000Y-12800000D03*
X78050000Y-11800000D03*
X77350000Y-11800000D03*
%TD*%
D15*
%TO.C,C3*%
X85600000Y-9380000D03*
X85600000Y-10020000D03*
%TD*%
D34*
%TO.C,R15*%
X57773726Y-17373726D03*
X58226274Y-17826274D03*
%TD*%
%TO.C,R17*%
X56573726Y-16773726D03*
X57026274Y-17226274D03*
%TD*%
D23*
%TO.C,R18*%
X60080000Y-19000000D03*
X60720000Y-19000000D03*
%TD*%
D35*
%TO.C,RN1*%
X19700000Y-9350000D03*
D36*
X19700000Y-9850000D03*
X19700000Y-10350000D03*
D35*
X19700000Y-10850000D03*
X20700000Y-10850000D03*
D36*
X20700000Y-10350000D03*
X20700000Y-9850000D03*
D35*
X20700000Y-9350000D03*
%TD*%
%TO.C,RN2*%
X19700000Y-11550000D03*
D36*
X19700000Y-12050000D03*
X19700000Y-12550000D03*
D35*
X19700000Y-13050000D03*
X20700000Y-13050000D03*
D36*
X20700000Y-12550000D03*
X20700000Y-12050000D03*
D35*
X20700000Y-11550000D03*
%TD*%
%TO.C,RN4*%
X19700000Y-14150000D03*
D36*
X19700000Y-14650000D03*
X19700000Y-15150000D03*
D35*
X19700000Y-15650000D03*
X20700000Y-15650000D03*
D36*
X20700000Y-15150000D03*
X20700000Y-14650000D03*
D35*
X20700000Y-14150000D03*
%TD*%
%TO.C,RN5*%
X19700000Y-16350000D03*
D36*
X19700000Y-16850000D03*
X19700000Y-17350000D03*
D35*
X19700000Y-17850000D03*
X20700000Y-17850000D03*
D36*
X20700000Y-17350000D03*
X20700000Y-16850000D03*
D35*
X20700000Y-16350000D03*
%TD*%
%TO.C,RN6*%
X20200000Y-18550000D03*
D36*
X20200000Y-19050000D03*
X20200000Y-19550000D03*
D35*
X20200000Y-20050000D03*
X21200000Y-20050000D03*
D36*
X21200000Y-19550000D03*
X21200000Y-19050000D03*
D35*
X21200000Y-18550000D03*
%TD*%
D37*
%TO.C,D5*%
X60700000Y-18185000D03*
X60700000Y-17215000D03*
%TD*%
%TO.C,D6*%
X61700000Y-18185000D03*
X61700000Y-17215000D03*
%TD*%
D34*
%TO.C,R16*%
X57173726Y-17973726D03*
X57626274Y-18426274D03*
%TD*%
D38*
%TO.C,D4*%
X58975000Y-17475000D03*
X59825000Y-17475000D03*
X59825000Y-18325000D03*
X58975000Y-18325000D03*
%TD*%
D21*
%TO.C,R19*%
X62220000Y-19000000D03*
X61580000Y-19000000D03*
%TD*%
D33*
%TO.C,RN12*%
X69050000Y-17300000D03*
X68350000Y-17300000D03*
X68350000Y-18300000D03*
X69050000Y-18300000D03*
%TD*%
D39*
%TO.C,TP1*%
X69290000Y-19200000D03*
D26*
X69290000Y-19000000D03*
D39*
X71830000Y-19200000D03*
D26*
X71830000Y-19000000D03*
X74370000Y-19000000D03*
D39*
X74370000Y-19200000D03*
X76910000Y-19200000D03*
D26*
X76910000Y-19000000D03*
%TD*%
D21*
%TO.C,C38*%
X19420000Y-19300000D03*
X18780000Y-19300000D03*
%TD*%
D39*
%TO.C,AE1*%
X16000000Y-21000000D03*
D40*
X17500000Y-22475000D03*
X17500000Y-19525000D03*
D39*
X19000000Y-21000000D03*
%TD*%
D21*
%TO.C,C40*%
X20620000Y-22400000D03*
X19980000Y-22400000D03*
%TD*%
D35*
%TO.C,RN8*%
X21400000Y-20750000D03*
D36*
X21400000Y-21250000D03*
X21400000Y-21750000D03*
D35*
X21400000Y-22250000D03*
X22400000Y-22250000D03*
D36*
X22400000Y-21750000D03*
X22400000Y-21250000D03*
D35*
X22400000Y-20750000D03*
%TD*%
D41*
%TO.C,U2*%
X86750000Y-3800000D03*
X86250000Y-3800000D03*
X85750000Y-3800000D03*
X85250000Y-3800000D03*
X84750000Y-3800000D03*
X84750000Y-8200000D03*
X85250000Y-8200000D03*
X85750000Y-8200000D03*
X86250000Y-8200000D03*
X86750000Y-8200000D03*
%TD*%
D29*
%TO.C,D12*%
X65000000Y-21120000D03*
X65000000Y-20480000D03*
%TD*%
%TO.C,D14*%
X66000000Y-21120000D03*
X66000000Y-20480000D03*
%TD*%
%TO.C,D9*%
X81800000Y-21120000D03*
X81800000Y-20480000D03*
%TD*%
D21*
%TO.C,C23*%
X79645000Y-8100000D03*
X79005000Y-8100000D03*
%TD*%
D42*
%TO.C,X3*%
X79975000Y-9200000D03*
X78225000Y-9200000D03*
X78225000Y-10600000D03*
X79975000Y-10600000D03*
%TD*%
D20*
%TO.C,C85*%
X18100000Y-8320000D03*
X18100000Y-9280000D03*
%TD*%
D15*
%TO.C,C86*%
X18800000Y-8430000D03*
X18800000Y-9070000D03*
%TD*%
D21*
%TO.C,FB4*%
X17445000Y-8400000D03*
X16805000Y-8400000D03*
%TD*%
D15*
%TO.C,D13*%
X85800000Y-1880000D03*
X85800000Y-2520000D03*
%TD*%
D21*
%TO.C,D10*%
X83820000Y-21000000D03*
X83180000Y-21000000D03*
%TD*%
D11*
%TO.C,D7*%
X48315000Y-22350000D03*
X49285000Y-22350000D03*
%TD*%
D21*
%TO.C,R20*%
X50720000Y-22400000D03*
X50080000Y-22400000D03*
%TD*%
D43*
%TO.C,J1*%
X4460000Y-11360000D03*
X4460000Y-3360000D03*
D44*
X15300000Y-10500000D03*
X15300000Y-9400000D03*
X15300000Y-8300000D03*
X15300000Y-7200000D03*
X15300000Y-6100000D03*
X15300000Y-5000000D03*
X15300000Y-3900000D03*
X15300000Y-2800000D03*
X15300000Y-1700000D03*
D12*
X14450000Y-600000D03*
D45*
X4750000Y-600000D03*
D12*
X14450000Y-15280000D03*
D45*
X4750000Y-16120000D03*
%TD*%
D35*
%TO.C,RN3*%
X83100000Y-5750000D03*
X83100000Y-5050000D03*
X82100000Y-5050000D03*
X82100000Y-5750000D03*
%TD*%
%TO.C,RN11*%
X86550000Y-10500000D03*
X86550000Y-11200000D03*
X87550000Y-11200000D03*
X87550000Y-10500000D03*
%TD*%
D18*
%TO.C,C24*%
X80270000Y-8100000D03*
X81230000Y-8100000D03*
%TD*%
D15*
%TO.C,FB1*%
X80200000Y-11780000D03*
X80200000Y-12420000D03*
%TD*%
D33*
%TO.C,RN10*%
X55250000Y-2200000D03*
D46*
X54750000Y-2200000D03*
X54250000Y-2200000D03*
D33*
X53750000Y-2200000D03*
X53750000Y-3200000D03*
D46*
X54250000Y-3200000D03*
X54750000Y-3200000D03*
D33*
X55250000Y-3200000D03*
%TD*%
D47*
%TO.C,FID2*%
X84000000Y-3000000D03*
%TD*%
%TO.C,FID1*%
X86000000Y-19000000D03*
%TD*%
%TO.C,FID3*%
X6000000Y-4000000D03*
%TD*%
D29*
%TO.C,R9*%
X21900000Y-5820000D03*
X21900000Y-5180000D03*
%TD*%
D48*
%TO.C,J6*%
X59000000Y-7000000D03*
D49*
X60000000Y-7000000D03*
X61000000Y-7000000D03*
X62000000Y-7000000D03*
X63000000Y-7000000D03*
X64000000Y-7000000D03*
X65000000Y-7000000D03*
X66000000Y-7000000D03*
X67000000Y-7000000D03*
%TD*%
D48*
%TO.C,J3*%
X17000000Y-15000000D03*
D49*
X17000000Y-16000000D03*
%TD*%
D48*
%TO.C,J5*%
X66000000Y-1000000D03*
D49*
X67000000Y-1000000D03*
X68000000Y-1000000D03*
X69000000Y-1000000D03*
X70000000Y-1000000D03*
X71000000Y-1000000D03*
X72000000Y-1000000D03*
X73000000Y-1000000D03*
X74000000Y-1000000D03*
X75000000Y-1000000D03*
X76000000Y-1000000D03*
X77000000Y-1000000D03*
X78000000Y-1000000D03*
X79000000Y-1000000D03*
X80000000Y-1000000D03*
X81000000Y-1000000D03*
X82000000Y-1000000D03*
X83000000Y-1000000D03*
X84000000Y-1000000D03*
X85000000Y-1000000D03*
X86000000Y-1000000D03*
X87000000Y-1000000D03*
%TD*%
D48*
%TO.C,J4*%
X57000000Y-22000000D03*
D49*
X58000000Y-22000000D03*
X59000000Y-22000000D03*
X60000000Y-22000000D03*
X61000000Y-22000000D03*
X62000000Y-22000000D03*
X63000000Y-22000000D03*
X64000000Y-22000000D03*
X65000000Y-22000000D03*
X66000000Y-22000000D03*
X67000000Y-22000000D03*
X68000000Y-22000000D03*
X69000000Y-22000000D03*
X70000000Y-22000000D03*
X71000000Y-22000000D03*
X72000000Y-22000000D03*
X73000000Y-22000000D03*
X74000000Y-22000000D03*
X75000000Y-22000000D03*
X76000000Y-22000000D03*
X77000000Y-22000000D03*
X78000000Y-22000000D03*
X79000000Y-22000000D03*
X80000000Y-22000000D03*
X81000000Y-22000000D03*
X82000000Y-22000000D03*
X83000000Y-22000000D03*
X84000000Y-22000000D03*
X85000000Y-22000000D03*
X86000000Y-22000000D03*
X87000000Y-22000000D03*
%TD*%
D50*
%TO.C,J2*%
X52000000Y-1000000D03*
D49*
X53000000Y-1000000D03*
X54000000Y-1000000D03*
X55000000Y-1000000D03*
X56000000Y-1000000D03*
X57000000Y-1000000D03*
X58000000Y-1000000D03*
X59000000Y-1000000D03*
%TD*%
D48*
%TO.C,J7*%
X70000000Y-19000000D03*
D49*
X71000000Y-19000000D03*
%TD*%
M02*
