%TF.GenerationSoftware,KiCad,Pcbnew,(6.0.0)*%
%TF.CreationDate,2022-01-21T23:47:04+08:00*%
%TF.ProjectId,som,736f6d2e-6b69-4636-9164-5f7063625858,V0R1*%
%TF.SameCoordinates,Original*%
%TF.FileFunction,Soldermask,Bot*%
%TF.FilePolarity,Negative*%
%FSLAX46Y46*%
G04 Gerber Fmt 4.6, Leading zero omitted, Abs format (unit mm)*
G04 Created by KiCad (PCBNEW (6.0.0)) date 2022-01-21 23:47:04*
%MOMM*%
%LPD*%
G01*
G04 APERTURE LIST*
G04 Aperture macros list*
%AMRoundRect*
0 Rectangle with rounded corners*
0 $1 Rounding radius*
0 $2 $3 $4 $5 $6 $7 $8 $9 X,Y pos of 4 corners*
0 Add a 4 corners polygon primitive as box body*
4,1,4,$2,$3,$4,$5,$6,$7,$8,$9,$2,$3,0*
0 Add four circle primitives for the rounded corners*
1,1,$1+$1,$2,$3*
1,1,$1+$1,$4,$5*
1,1,$1+$1,$6,$7*
1,1,$1+$1,$8,$9*
0 Add four rect primitives between the rounded corners*
20,1,$1+$1,$2,$3,$4,$5,0*
20,1,$1+$1,$4,$5,$6,$7,0*
20,1,$1+$1,$6,$7,$8,$9,0*
20,1,$1+$1,$8,$9,$2,$3,0*%
%AMFreePoly0*
4,1,6,0.650000,0.000000,0.150000,-0.250000,-0.100000,-0.250000,-0.100000,0.250000,0.150000,0.250000,0.650000,0.000000,0.650000,0.000000,$1*%
%AMFreePoly1*
4,1,6,0.100000,-0.250000,-0.600000,-0.250000,-0.100000,0.000000,-0.600000,0.250000,0.100000,0.250000,0.100000,-0.250000,0.100000,-0.250000,$1*%
G04 Aperture macros list end*
%ADD10C,0.000000*%
%ADD11C,0.100000*%
%ADD12RoundRect,0.150000X-0.875000X-0.150000X0.875000X-0.150000X0.875000X0.150000X-0.875000X0.150000X0*%
%ADD13RoundRect,0.100000X0.125000X0.100000X-0.125000X0.100000X-0.125000X-0.100000X0.125000X-0.100000X0*%
%ADD14RoundRect,0.100000X-0.130000X-0.100000X0.130000X-0.100000X0.130000X0.100000X-0.130000X0.100000X0*%
%ADD15RoundRect,0.100000X0.100000X-0.130000X0.100000X0.130000X-0.100000X0.130000X-0.100000X-0.130000X0*%
%ADD16RoundRect,0.100000X0.130000X0.100000X-0.130000X0.100000X-0.130000X-0.100000X0.130000X-0.100000X0*%
%ADD17RoundRect,0.100000X-0.100000X0.130000X-0.100000X-0.130000X0.100000X-0.130000X0.100000X0.130000X0*%
%ADD18RoundRect,0.100000X-0.125000X-0.100000X0.125000X-0.100000X0.125000X0.100000X-0.125000X0.100000X0*%
%ADD19RoundRect,0.100000X0.021213X0.162635X-0.162635X-0.021213X-0.021213X-0.162635X0.162635X0.021213X0*%
%ADD20RoundRect,0.218750X0.218750X0.256250X-0.218750X0.256250X-0.218750X-0.256250X0.218750X-0.256250X0*%
%ADD21R,0.850000X0.850000*%
%ADD22O,0.850000X0.850000*%
%ADD23RoundRect,0.225000X-0.225000X-0.250000X0.225000X-0.250000X0.225000X0.250000X-0.225000X0.250000X0*%
%ADD24RoundRect,0.100000X-0.100000X0.125000X-0.100000X-0.125000X0.100000X-0.125000X0.100000X0.125000X0*%
%ADD25RoundRect,0.100000X-0.021213X-0.162635X0.162635X0.021213X0.021213X0.162635X-0.162635X-0.021213X0*%
%ADD26RoundRect,0.243750X-0.656250X0.243750X-0.656250X-0.243750X0.656250X-0.243750X0.656250X0.243750X0*%
%ADD27RoundRect,0.147500X0.147500X0.172500X-0.147500X0.172500X-0.147500X-0.172500X0.147500X-0.172500X0*%
%ADD28R,0.600000X0.700000*%
%ADD29RoundRect,0.140000X0.140000X0.170000X-0.140000X0.170000X-0.140000X-0.170000X0.140000X-0.170000X0*%
%ADD30R,1.200000X0.500000*%
%ADD31FreePoly0,0.000000*%
%ADD32FreePoly1,0.000000*%
%ADD33R,0.500000X1.200000*%
%ADD34FreePoly0,270.000000*%
%ADD35FreePoly1,270.000000*%
%ADD36R,0.500000X1.300000*%
%ADD37R,1.300000X0.500000*%
%ADD38R,1.150000X1.000000*%
%ADD39RoundRect,0.100000X-0.162635X0.021213X0.021213X-0.162635X0.162635X-0.021213X-0.021213X0.162635X0*%
%ADD40RoundRect,0.140000X-0.140000X-0.170000X0.140000X-0.170000X0.140000X0.170000X-0.140000X0.170000X0*%
%ADD41C,0.850000*%
%ADD42R,2.000000X0.800000*%
%ADD43R,0.400000X0.500000*%
%ADD44R,0.300000X0.500000*%
%ADD45FreePoly0,180.000000*%
%ADD46FreePoly1,180.000000*%
%ADD47R,1.000000X1.150000*%
%ADD48C,1.000000*%
G04 APERTURE END LIST*
D10*
G36*
X8600000Y-5850000D02*
G01*
X8400000Y-5850000D01*
X8400000Y-5650000D01*
X8600000Y-5650000D01*
X8600000Y-5850000D01*
G37*
G36*
X8400000Y-5650000D02*
G01*
X8200000Y-5650000D01*
X8200000Y-5450000D01*
X8400000Y-5450000D01*
X8400000Y-5650000D01*
G37*
D11*
%TO.C,REF\u002A\u002A*%
X61642354Y-4957645D02*
X64357645Y-4957645D01*
X63304344Y-3904344D02*
X63304344Y-3295655D01*
X62265247Y-4334752D02*
X64039096Y-3600000D01*
X62999999Y-3169592D02*
X62569592Y-3600000D01*
X64357645Y-4957645D02*
X64357645Y-5520000D01*
X62569592Y-3600000D02*
X62999999Y-4030407D01*
X64039096Y-3600000D02*
X62265247Y-2865247D01*
X63734752Y-2865247D02*
X61960903Y-3600000D01*
X64920000Y-3600000D02*
X62999999Y-1680000D01*
X62695655Y-3904344D02*
X63304344Y-3904344D01*
X62265247Y-4334752D02*
X63000000Y-2560903D01*
X61080000Y-2242354D02*
X61642354Y-2242354D01*
X64254300Y-3080451D02*
X62480451Y-2345699D01*
X64254300Y-4119548D02*
X63519548Y-2345699D01*
X61960903Y-3600000D02*
X63734752Y-4334752D01*
X64920000Y-1680000D02*
X61080000Y-1680000D01*
X63734752Y-4334752D02*
X63000000Y-2560903D01*
X64357645Y-1680000D02*
X64357645Y-2242354D01*
X64920000Y-4957645D02*
X64357645Y-4957645D01*
X61642354Y-5520000D02*
X61642354Y-4957645D01*
X64920000Y-2242354D02*
X64357645Y-2242354D01*
X61080000Y-5520000D02*
X64920000Y-5520000D01*
X63430407Y-3599999D02*
X62999999Y-3169592D01*
X63519548Y-2345699D02*
X61745699Y-3080451D01*
X61745699Y-4119548D02*
X63519548Y-4854300D01*
X61079999Y-3600000D02*
X63000000Y-5519999D01*
X61642354Y-2242354D02*
X61642354Y-4957645D01*
X64357645Y-2242354D02*
X61642354Y-2242354D01*
X62480451Y-2345699D02*
X61745699Y-4119548D01*
X62999999Y-1680000D02*
X61079999Y-3600000D01*
X64920000Y-5520000D02*
X64920000Y-1680000D01*
X63000000Y-4639096D02*
X63734752Y-2865247D01*
X62265247Y-2865247D02*
X63000000Y-4639096D01*
X61080000Y-1680000D02*
X61080000Y-5520000D01*
X62480451Y-4854300D02*
X64254300Y-4119548D01*
X61080000Y-4957645D02*
X61642354Y-4957645D01*
X63519548Y-4854300D02*
X64254300Y-3080451D01*
X61745699Y-3080451D02*
X62480451Y-4854300D01*
X62695655Y-3295655D02*
X62695655Y-3904344D01*
X63304344Y-3295655D02*
X62695655Y-3295655D01*
X61642354Y-1680000D02*
X61642354Y-2242354D01*
X64357645Y-4957645D02*
X64357645Y-2242354D01*
X63000000Y-5519999D02*
X64920000Y-3600000D01*
X62999999Y-4030407D02*
X63430407Y-3599999D01*
X61080000Y-3600000D02*
X61089912Y-3796308D01*
X61119007Y-3986946D01*
X61166319Y-4170949D01*
X61230883Y-4347350D01*
X61311733Y-4515185D01*
X61407905Y-4673489D01*
X61518434Y-4821297D01*
X61642354Y-4957644D01*
X61778701Y-5081565D01*
X61926509Y-5192093D01*
X62084813Y-5288266D01*
X62252649Y-5369116D01*
X62429050Y-5433680D01*
X62613052Y-5480992D01*
X62803691Y-5510087D01*
X63000000Y-5520000D01*
X62695655Y-3599999D02*
X62714122Y-3704642D01*
X62765152Y-3793590D01*
X62842185Y-3860282D01*
X62938663Y-3898160D01*
X62999999Y-3904344D01*
X62040000Y-4560000D02*
X62143110Y-4653197D01*
X62252977Y-4733969D01*
X62368634Y-4802314D01*
X62489116Y-4858233D01*
X62613459Y-4901725D01*
X62740697Y-4932791D01*
X62869866Y-4951431D01*
X62999999Y-4957644D01*
X63130133Y-4951431D01*
X63259301Y-4932791D01*
X63386539Y-4901725D01*
X63510882Y-4858233D01*
X63631365Y-4802314D01*
X63747022Y-4733969D01*
X63856889Y-4653197D01*
X63960000Y-4560000D01*
X62999999Y-3904344D02*
X63104642Y-3885876D01*
X63193590Y-3834846D01*
X63260282Y-3757812D01*
X63298160Y-3661335D01*
X63304344Y-3599999D01*
X63304344Y-3599999D02*
X63285876Y-3495355D01*
X63234846Y-3406408D01*
X63157812Y-3339716D01*
X63061335Y-3301838D01*
X62999999Y-3295655D01*
X63000000Y-1680000D02*
X62803691Y-1689912D01*
X62613052Y-1719007D01*
X62429050Y-1766319D01*
X62252649Y-1830883D01*
X62084813Y-1911733D01*
X61926509Y-2007905D01*
X61778701Y-2118434D01*
X61642354Y-2242354D01*
X61518434Y-2378701D01*
X61407905Y-2526509D01*
X61311733Y-2684813D01*
X61230883Y-2852649D01*
X61166319Y-3029050D01*
X61119007Y-3213052D01*
X61089912Y-3403691D01*
X61080000Y-3600000D01*
X64920000Y-3600000D02*
X64910087Y-3403691D01*
X64880992Y-3213052D01*
X64833680Y-3029050D01*
X64769116Y-2852649D01*
X64688266Y-2684813D01*
X64592093Y-2526509D01*
X64481565Y-2378701D01*
X64357644Y-2242354D01*
X64221297Y-2118434D01*
X64073489Y-2007905D01*
X63915185Y-1911733D01*
X63747350Y-1830883D01*
X63570949Y-1766319D01*
X63386946Y-1719007D01*
X63196308Y-1689912D01*
X63000000Y-1680000D01*
X63960000Y-2640000D02*
X63856889Y-2546801D01*
X63747022Y-2466030D01*
X63631365Y-2397684D01*
X63510882Y-2341765D01*
X63386539Y-2298273D01*
X63259301Y-2267207D01*
X63130133Y-2248567D01*
X62999999Y-2242354D01*
X62869866Y-2248567D01*
X62740697Y-2267207D01*
X62613459Y-2298273D01*
X62489116Y-2341765D01*
X62368634Y-2397684D01*
X62252977Y-2466030D01*
X62143110Y-2546801D01*
X62040000Y-2640000D01*
X63960000Y-4560000D02*
X64053197Y-4456889D01*
X64133969Y-4347022D01*
X64202314Y-4231365D01*
X64258233Y-4110882D01*
X64301725Y-3986539D01*
X64332791Y-3859301D01*
X64351431Y-3730133D01*
X64357644Y-3599999D01*
X64351431Y-3469866D01*
X64332791Y-3340697D01*
X64301725Y-3213459D01*
X64258233Y-3089116D01*
X64202314Y-2968634D01*
X64133969Y-2852977D01*
X64053197Y-2743110D01*
X63960000Y-2640000D01*
X62040000Y-2640000D02*
X61946801Y-2743110D01*
X61866030Y-2852977D01*
X61797684Y-2968634D01*
X61741765Y-3089116D01*
X61698273Y-3213459D01*
X61667207Y-3340697D01*
X61648567Y-3469866D01*
X61642354Y-3599999D01*
X61648567Y-3730133D01*
X61667207Y-3859301D01*
X61698273Y-3986539D01*
X61741765Y-4110882D01*
X61797684Y-4231365D01*
X61866030Y-4347022D01*
X61946801Y-4456889D01*
X62040000Y-4560000D01*
X62999999Y-3295655D02*
X62895355Y-3314122D01*
X62806408Y-3365152D01*
X62739716Y-3442185D01*
X62701838Y-3538663D01*
X62695655Y-3599999D01*
X63000000Y-5520000D02*
X63196308Y-5510087D01*
X63386946Y-5480992D01*
X63570949Y-5433680D01*
X63747350Y-5369116D01*
X63915185Y-5288266D01*
X64073489Y-5192093D01*
X64221297Y-5081565D01*
X64357644Y-4957644D01*
X64481565Y-4821297D01*
X64592093Y-4673489D01*
X64688266Y-4515185D01*
X64769116Y-4347350D01*
X64833680Y-4170949D01*
X64880992Y-3986946D01*
X64910087Y-3796308D01*
X64920000Y-3600000D01*
%TD*%
D12*
%TO.C,U5*%
X76950000Y-11945000D03*
X76950000Y-10675000D03*
X76950000Y-9405000D03*
X76950000Y-8135000D03*
X76950000Y-6865000D03*
X76950000Y-5595000D03*
X76950000Y-4325000D03*
X76950000Y-3055000D03*
X86250000Y-3055000D03*
X86250000Y-4325000D03*
X86250000Y-5595000D03*
X86250000Y-6865000D03*
X86250000Y-8135000D03*
X86250000Y-9405000D03*
X86250000Y-10675000D03*
X86250000Y-11945000D03*
%TD*%
D13*
%TO.C,C96*%
X51000000Y-6500000D03*
X50200000Y-6500000D03*
%TD*%
D14*
%TO.C,C88*%
X50280000Y-9100000D03*
X50920000Y-9100000D03*
%TD*%
D15*
%TO.C,C89*%
X47400000Y-7620000D03*
X47400000Y-6980000D03*
%TD*%
D16*
%TO.C,C91*%
X43720000Y-13000000D03*
X43080000Y-13000000D03*
%TD*%
D15*
%TO.C,C93*%
X43800000Y-20020000D03*
X43800000Y-19380000D03*
%TD*%
D13*
%TO.C,C95*%
X43800000Y-6500000D03*
X43000000Y-6500000D03*
%TD*%
D17*
%TO.C,C90*%
X44600000Y-8180000D03*
X44600000Y-8820000D03*
%TD*%
D16*
%TO.C,C92*%
X43720000Y-14900000D03*
X43080000Y-14900000D03*
%TD*%
D17*
%TO.C,C123*%
X50000000Y-19780000D03*
X50000000Y-20420000D03*
%TD*%
D14*
%TO.C,C124*%
X51480000Y-17300000D03*
X52120000Y-17300000D03*
%TD*%
%TO.C,C126*%
X53480000Y-16900000D03*
X54120000Y-16900000D03*
%TD*%
D15*
%TO.C,C125*%
X52200000Y-19220000D03*
X52200000Y-18580000D03*
%TD*%
D16*
%TO.C,C127*%
X52920000Y-15700000D03*
X52280000Y-15700000D03*
%TD*%
D17*
%TO.C,C131*%
X53000000Y-10080000D03*
X53000000Y-10720000D03*
%TD*%
D14*
%TO.C,C128*%
X51880000Y-13700000D03*
X52520000Y-13700000D03*
%TD*%
D16*
%TO.C,C129*%
X54920000Y-12900000D03*
X54280000Y-12900000D03*
%TD*%
D14*
%TO.C,C130*%
X52280000Y-12500000D03*
X52920000Y-12500000D03*
%TD*%
D16*
%TO.C,C132*%
X53320000Y-7300000D03*
X52680000Y-7300000D03*
%TD*%
%TO.C,C53*%
X48520000Y-16300000D03*
X47880000Y-16300000D03*
%TD*%
%TO.C,C45*%
X48520000Y-12300000D03*
X47880000Y-12300000D03*
%TD*%
D18*
%TO.C,C54*%
X43800000Y-15900000D03*
X44600000Y-15900000D03*
%TD*%
D17*
%TO.C,C44*%
X48400000Y-10980000D03*
X48400000Y-11620000D03*
%TD*%
D19*
%TO.C,C52*%
X44426274Y-17473726D03*
X43973726Y-17926274D03*
%TD*%
D15*
%TO.C,C47*%
X48800000Y-15620000D03*
X48800000Y-14980000D03*
%TD*%
D17*
%TO.C,C48*%
X44800000Y-12580000D03*
X44800000Y-13220000D03*
%TD*%
D15*
%TO.C,C50*%
X44600000Y-10020000D03*
X44600000Y-9380000D03*
%TD*%
D17*
%TO.C,C49*%
X44800000Y-14180000D03*
X44800000Y-14820000D03*
%TD*%
D15*
%TO.C,C46*%
X48400000Y-14020000D03*
X48400000Y-13380000D03*
%TD*%
D14*
%TO.C,C43*%
X47080000Y-11100000D03*
X47720000Y-11100000D03*
%TD*%
%TO.C,C64*%
X46280000Y-15500000D03*
X46920000Y-15500000D03*
%TD*%
D17*
%TO.C,C67*%
X47600000Y-13380000D03*
X47600000Y-14020000D03*
%TD*%
D18*
%TO.C,C133*%
X50200000Y-10500000D03*
X51000000Y-10500000D03*
%TD*%
D14*
%TO.C,C66*%
X45480000Y-14300000D03*
X46120000Y-14300000D03*
%TD*%
%TO.C,C63*%
X46280000Y-16300000D03*
X46920000Y-16300000D03*
%TD*%
D15*
%TO.C,C65*%
X48000000Y-15620000D03*
X48000000Y-14980000D03*
%TD*%
D14*
%TO.C,C68*%
X45480000Y-12700000D03*
X46120000Y-12700000D03*
%TD*%
%TO.C,C69*%
X45480000Y-11900000D03*
X46120000Y-11900000D03*
%TD*%
D20*
%TO.C,C2*%
X6587500Y-15800000D03*
X5012500Y-15800000D03*
%TD*%
D19*
%TO.C,C16*%
X43626274Y-16673726D03*
X43173726Y-17126274D03*
%TD*%
D17*
%TO.C,C58*%
X42600000Y-19780000D03*
X42600000Y-20420000D03*
%TD*%
D19*
%TO.C,C15*%
X43626274Y-11873726D03*
X43173726Y-12326274D03*
%TD*%
D21*
%TO.C,J6*%
X59000000Y-7000000D03*
D22*
X60000000Y-7000000D03*
X61000000Y-7000000D03*
X62000000Y-7000000D03*
X63000000Y-7000000D03*
X64000000Y-7000000D03*
X65000000Y-7000000D03*
X66000000Y-7000000D03*
X67000000Y-7000000D03*
%TD*%
D15*
%TO.C,R10*%
X50600000Y-5820000D03*
X50600000Y-5180000D03*
%TD*%
%TO.C,R11*%
X43000000Y-9620000D03*
X43000000Y-8980000D03*
%TD*%
D17*
%TO.C,R7*%
X45400000Y-19380000D03*
X45400000Y-20020000D03*
%TD*%
%TO.C,R12*%
X43000000Y-10980000D03*
X43000000Y-11620000D03*
%TD*%
D23*
%TO.C,C20*%
X17125000Y-6200000D03*
X18675000Y-6200000D03*
%TD*%
D16*
%TO.C,R9*%
X30920000Y-14700000D03*
X30280000Y-14700000D03*
%TD*%
D15*
%TO.C,C57*%
X43000000Y-16020000D03*
X43000000Y-15380000D03*
%TD*%
D16*
%TO.C,C79*%
X36120000Y-6800000D03*
X35480000Y-6800000D03*
%TD*%
D14*
%TO.C,C83*%
X31080000Y-13800000D03*
X31720000Y-13800000D03*
%TD*%
%TO.C,C76*%
X29480000Y-6800000D03*
X30120000Y-6800000D03*
%TD*%
%TO.C,C81*%
X34280000Y-13800000D03*
X34920000Y-13800000D03*
%TD*%
D17*
%TO.C,C55*%
X41400000Y-6180000D03*
X41400000Y-6820000D03*
%TD*%
D16*
%TO.C,C74*%
X24920000Y-6800000D03*
X24280000Y-6800000D03*
%TD*%
%TO.C,C75*%
X26520000Y-6800000D03*
X25880000Y-6800000D03*
%TD*%
%TO.C,C18*%
X20870000Y-11300000D03*
X20230000Y-11300000D03*
%TD*%
%TO.C,C78*%
X34520000Y-6800000D03*
X33880000Y-6800000D03*
%TD*%
%TO.C,C82*%
X33320000Y-13800000D03*
X32680000Y-13800000D03*
%TD*%
%TO.C,C77*%
X32120000Y-6800000D03*
X31480000Y-6800000D03*
%TD*%
D17*
%TO.C,R1*%
X29100000Y-11780000D03*
X29100000Y-12420000D03*
%TD*%
D24*
%TO.C,C62*%
X31400000Y-11700000D03*
X31400000Y-12500000D03*
%TD*%
D25*
%TO.C,C60*%
X39973726Y-18726274D03*
X40426274Y-18273726D03*
%TD*%
D18*
%TO.C,C85*%
X26600000Y-14300000D03*
X27400000Y-14300000D03*
%TD*%
D17*
%TO.C,R8*%
X44600000Y-19380000D03*
X44600000Y-20020000D03*
%TD*%
D13*
%TO.C,C84*%
X25000000Y-14300000D03*
X24200000Y-14300000D03*
%TD*%
D18*
%TO.C,C61*%
X40200000Y-16100000D03*
X41000000Y-16100000D03*
%TD*%
D16*
%TO.C,C80*%
X36320000Y-13800000D03*
X35680000Y-13800000D03*
%TD*%
D14*
%TO.C,C1*%
X2480000Y-1400000D03*
X3120000Y-1400000D03*
%TD*%
D26*
%TO.C,L1*%
X1100000Y-562500D03*
X1100000Y-2437500D03*
%TD*%
D27*
%TO.C,C29*%
X75185000Y-10400000D03*
X74215000Y-10400000D03*
%TD*%
D16*
%TO.C,C30*%
X75095000Y-11100000D03*
X74455000Y-11100000D03*
%TD*%
D28*
%TO.C,D1*%
X84700000Y-13700000D03*
X83300000Y-13700000D03*
%TD*%
D14*
%TO.C,R4*%
X8880000Y-800000D03*
X9520000Y-800000D03*
%TD*%
D13*
%TO.C,C72*%
X44600000Y-10900000D03*
X43800000Y-10900000D03*
%TD*%
D14*
%TO.C,FB3*%
X44680000Y-10900000D03*
X45320000Y-10900000D03*
%TD*%
D29*
%TO.C,C19*%
X20880000Y-10500000D03*
X19920000Y-10500000D03*
%TD*%
D17*
%TO.C,C73*%
X44600000Y-11130000D03*
X44600000Y-11770000D03*
%TD*%
%TO.C,C51*%
X45600000Y-15780000D03*
X45600000Y-16420000D03*
%TD*%
%TO.C,C71*%
X46800000Y-11780000D03*
X46800000Y-12420000D03*
%TD*%
D15*
%TO.C,C94*%
X46500000Y-20420000D03*
X46500000Y-19780000D03*
%TD*%
D30*
%TO.C,JP1*%
X12900000Y-16300000D03*
D31*
X12400000Y-16300000D03*
D32*
X13400000Y-16300000D03*
%TD*%
D33*
%TO.C,JP2*%
X12300000Y-16900000D03*
D34*
X12300000Y-16400000D03*
D35*
X12300000Y-17400000D03*
%TD*%
D36*
%TO.C,U4*%
X13200000Y-13500000D03*
X12300000Y-13500000D03*
X11400000Y-13500000D03*
X10500000Y-13500000D03*
X9600000Y-13500000D03*
X8700000Y-13500000D03*
X7800000Y-13500000D03*
X6900000Y-13500000D03*
X6000000Y-13500000D03*
X5100000Y-13500000D03*
X4200000Y-13500000D03*
D37*
X2900000Y-12200000D03*
X2900000Y-11300000D03*
X2900000Y-10400000D03*
X2900000Y-9500000D03*
X2900000Y-8600000D03*
X2900000Y-7700000D03*
X2900000Y-6800000D03*
X2900000Y-5900000D03*
X2900000Y-5000000D03*
X2900000Y-4100000D03*
X2900000Y-3200000D03*
D36*
X4200000Y-1900000D03*
X5100000Y-1900000D03*
X6000000Y-1900000D03*
X6900000Y-1900000D03*
X7800000Y-1900000D03*
X8700000Y-1900000D03*
X9600000Y-1900000D03*
X10500000Y-1900000D03*
X11400000Y-1900000D03*
X12300000Y-1900000D03*
X13200000Y-1900000D03*
D37*
X14500000Y-3200000D03*
X14500000Y-4100000D03*
X14500000Y-5000000D03*
X14500000Y-5900000D03*
X14500000Y-6800000D03*
X14500000Y-7700000D03*
X14500000Y-8600000D03*
X14500000Y-9500000D03*
X14500000Y-10400000D03*
X14500000Y-11300000D03*
X14500000Y-12200000D03*
%TD*%
D21*
%TO.C,J3*%
X17000000Y-15000000D03*
D22*
X17000000Y-16000000D03*
%TD*%
D16*
%TO.C,R6*%
X87495000Y-13200000D03*
X86855000Y-13200000D03*
%TD*%
D38*
%TO.C,X1*%
X10075000Y-16500000D03*
X8325000Y-16500000D03*
X8325000Y-15100000D03*
X10075000Y-15100000D03*
%TD*%
D15*
%TO.C,C26*%
X87600000Y-9245000D03*
X87600000Y-8605000D03*
%TD*%
D39*
%TO.C,C56*%
X42373726Y-11873726D03*
X42826274Y-12326274D03*
%TD*%
D14*
%TO.C,C70*%
X47080000Y-10300000D03*
X47720000Y-10300000D03*
%TD*%
D21*
%TO.C,J5*%
X66000000Y-1000000D03*
D22*
X67000000Y-1000000D03*
X68000000Y-1000000D03*
X69000000Y-1000000D03*
X70000000Y-1000000D03*
X71000000Y-1000000D03*
X72000000Y-1000000D03*
X73000000Y-1000000D03*
X74000000Y-1000000D03*
X75000000Y-1000000D03*
X76000000Y-1000000D03*
X77000000Y-1000000D03*
X78000000Y-1000000D03*
X79000000Y-1000000D03*
X80000000Y-1000000D03*
X81000000Y-1000000D03*
X82000000Y-1000000D03*
X83000000Y-1000000D03*
X84000000Y-1000000D03*
X85000000Y-1000000D03*
X86000000Y-1000000D03*
X87000000Y-1000000D03*
%TD*%
D40*
%TO.C,C21*%
X17220000Y-8000000D03*
X18180000Y-8000000D03*
%TD*%
D14*
%TO.C,C22*%
X17405000Y-7200000D03*
X18045000Y-7200000D03*
%TD*%
D41*
%TO.C,J4*%
X57000000Y-22000000D03*
D22*
X58000000Y-22000000D03*
X59000000Y-22000000D03*
X60000000Y-22000000D03*
X61000000Y-22000000D03*
X62000000Y-22000000D03*
X63000000Y-22000000D03*
X64000000Y-22000000D03*
X65000000Y-22000000D03*
X66000000Y-22000000D03*
X67000000Y-22000000D03*
X68000000Y-22000000D03*
X69000000Y-22000000D03*
X70000000Y-22000000D03*
X71000000Y-22000000D03*
X72000000Y-22000000D03*
X73000000Y-22000000D03*
X74000000Y-22000000D03*
X75000000Y-22000000D03*
X76000000Y-22000000D03*
X77000000Y-22000000D03*
X78000000Y-22000000D03*
X79000000Y-22000000D03*
X80000000Y-22000000D03*
X81000000Y-22000000D03*
X82000000Y-22000000D03*
X83000000Y-22000000D03*
X84000000Y-22000000D03*
X85000000Y-22000000D03*
X86000000Y-22000000D03*
X87000000Y-22000000D03*
%TD*%
D42*
%TO.C,BT1*%
X84800000Y-17750000D03*
X84800000Y-16250000D03*
%TD*%
D41*
%TO.C,J2*%
X52000000Y-1000000D03*
D22*
X53000000Y-1000000D03*
X54000000Y-1000000D03*
X55000000Y-1000000D03*
X56000000Y-1000000D03*
X57000000Y-1000000D03*
X58000000Y-1000000D03*
X59000000Y-1000000D03*
%TD*%
D23*
%TO.C,C12*%
X3575000Y-500000D03*
X5125000Y-500000D03*
%TD*%
D15*
%TO.C,R14*%
X46200000Y-8020000D03*
X46200000Y-7380000D03*
%TD*%
D38*
%TO.C,X2*%
X2525000Y-16500000D03*
X775000Y-16500000D03*
X775000Y-15100000D03*
X2525000Y-15100000D03*
%TD*%
D43*
%TO.C,RN9*%
X47450000Y-19000000D03*
D44*
X46950000Y-19000000D03*
X46450000Y-19000000D03*
D43*
X45950000Y-19000000D03*
X45950000Y-18000000D03*
D44*
X46450000Y-18000000D03*
X46950000Y-18000000D03*
D43*
X47450000Y-18000000D03*
%TD*%
D39*
%TO.C,C59*%
X42773726Y-13873726D03*
X43226274Y-14326274D03*
%TD*%
D30*
%TO.C,JP3*%
X51100000Y-19100000D03*
D31*
X50600000Y-19100000D03*
D32*
X51600000Y-19100000D03*
%TD*%
D14*
%TO.C,C27*%
X3655000Y-16000000D03*
X4295000Y-16000000D03*
%TD*%
D40*
%TO.C,C28*%
X3620000Y-16750000D03*
X4580000Y-16750000D03*
%TD*%
D30*
%TO.C,JP4*%
X50800000Y-18200000D03*
D45*
X51300000Y-18200000D03*
D46*
X50300000Y-18200000D03*
%TD*%
D14*
%TO.C,FB2*%
X4080000Y-14850000D03*
X4720000Y-14850000D03*
%TD*%
%TO.C,C10*%
X780000Y-14000000D03*
X1420000Y-14000000D03*
%TD*%
D17*
%TO.C,R3*%
X1700000Y-12480000D03*
X1700000Y-13120000D03*
%TD*%
D40*
%TO.C,C121*%
X55420000Y-5300000D03*
X56380000Y-5300000D03*
%TD*%
D16*
%TO.C,C122*%
X54620000Y-5300000D03*
X53980000Y-5300000D03*
%TD*%
D17*
%TO.C,FB5*%
X53300000Y-5980000D03*
X53300000Y-6620000D03*
%TD*%
D47*
%TO.C,X5*%
X55700000Y-6525000D03*
X55700000Y-8275000D03*
X54300000Y-8275000D03*
X54300000Y-6525000D03*
%TD*%
D48*
%TO.C,FID6*%
X86000000Y-19000000D03*
%TD*%
%TO.C,FID5*%
X84000000Y-3000000D03*
%TD*%
D41*
%TO.C,J7*%
X70000000Y-19000000D03*
D22*
X71000000Y-19000000D03*
%TD*%
D48*
%TO.C,FID4*%
X6000000Y-4000000D03*
%TD*%
M02*
