%TF.GenerationSoftware,KiCad,Pcbnew,(6.0.0)*%
%TF.CreationDate,2022-01-21T23:47:06+08:00*%
%TF.ProjectId,som,736f6d2e-6b69-4636-9164-5f7063625858,V0R1*%
%TF.SameCoordinates,Original*%
%TF.FileFunction,Plated,1,4,PTH,Drill*%
%TF.FilePolarity,Positive*%
%FSLAX46Y46*%
G04 Gerber Fmt 4.6, Leading zero omitted, Abs format (unit mm)*
G04 Created by KiCad (PCBNEW (6.0.0)) date 2022-01-21 23:47:06*
%MOMM*%
%LPD*%
G01*
G04 APERTURE LIST*
%TA.AperFunction,ViaDrill*%
%ADD10C,0.200000*%
%TD*%
%TA.AperFunction,ViaDrill*%
%ADD11C,0.300000*%
%TD*%
%TA.AperFunction,ComponentDrill*%
%ADD12C,0.300000*%
%TD*%
%TA.AperFunction,ComponentDrill*%
%ADD13C,0.500000*%
%TD*%
G04 APERTURE END LIST*
D10*
X600000Y-17500000D03*
X800000Y-4800000D03*
X800000Y-6100000D03*
X800000Y-7400000D03*
X800000Y-8600000D03*
X800000Y-9900000D03*
X1100000Y-12300000D03*
X1100000Y-13100000D03*
X1200000Y-17500000D03*
X1800000Y-17500000D03*
X2400000Y-17500000D03*
X2700000Y-2500000D03*
X3000000Y-17500000D03*
X3100000Y-1900000D03*
X3600000Y-17500000D03*
X3900000Y-8600000D03*
X4000000Y-12300000D03*
X4100000Y-4400000D03*
X4200000Y-6800000D03*
X4200000Y-17500000D03*
X4500000Y-15800000D03*
X4500000Y-16100000D03*
X4500000Y-16400000D03*
X4800000Y-17500000D03*
X4900000Y-500000D03*
X4900000Y-900000D03*
X4900000Y-10400000D03*
X4900000Y-15800000D03*
X4900000Y-16100000D03*
X4900000Y-16400000D03*
X5250000Y-500000D03*
X5250000Y-900000D03*
X5300000Y-15800000D03*
X5300000Y-16100000D03*
X5300000Y-16400000D03*
X5400000Y-17500000D03*
X5600000Y-500000D03*
X5600000Y-900000D03*
X5600000Y-3000000D03*
X5900000Y-14600000D03*
X5900000Y-15000000D03*
X6000000Y-500000D03*
X6000000Y-17500000D03*
X6300000Y-14600000D03*
X6300000Y-15000000D03*
X6400000Y-500000D03*
X6600000Y-17500000D03*
X6700000Y-14600000D03*
X6700000Y-15000000D03*
X6800000Y-500000D03*
X7200000Y-500000D03*
X7200000Y-17500000D03*
X7300000Y-5900000D03*
X7600000Y-500000D03*
X7700000Y-15400000D03*
X7800000Y-17500000D03*
X8400000Y-17500000D03*
X8600000Y-10300000D03*
X9000000Y-7700000D03*
X9000000Y-17500000D03*
X9400000Y-15100000D03*
X9600000Y-17500000D03*
X10200000Y-17500000D03*
X10400000Y-4200000D03*
X10400000Y-4800000D03*
X10400000Y-5400000D03*
X10400000Y-6400000D03*
X10400000Y-7300000D03*
X10400000Y-8300000D03*
X10400000Y-9200000D03*
X10400000Y-10000000D03*
X10400000Y-10900000D03*
X10400000Y-11800000D03*
X10700000Y-4500000D03*
X10700000Y-5100000D03*
X10800000Y-17500000D03*
X11000000Y-4200000D03*
X11000000Y-4800000D03*
X11000000Y-5400000D03*
X11100000Y-6100000D03*
X11400000Y-12400000D03*
X11400000Y-15100000D03*
X11400000Y-15700000D03*
X11400000Y-16300000D03*
X11400000Y-16900000D03*
X11400000Y-17500000D03*
X11500000Y-8300000D03*
X11700000Y-11100000D03*
X11900000Y-9400000D03*
X12700000Y-11300000D03*
X13200000Y-12400000D03*
X13200000Y-15100000D03*
X13200000Y-15700000D03*
X13200000Y-16900000D03*
X13200000Y-17500000D03*
X13500000Y-11300000D03*
X14000000Y-14900000D03*
X14000000Y-15250000D03*
X14000000Y-15600000D03*
X14400000Y-14900000D03*
X14400000Y-15250000D03*
X14400000Y-15600000D03*
X14800000Y-14900000D03*
X14800000Y-15250000D03*
X14800000Y-15600000D03*
X15700000Y-22200000D03*
X15700000Y-22700000D03*
X16300000Y-4300000D03*
X16500000Y-6000000D03*
X16500000Y-6500000D03*
X16500000Y-7000000D03*
X16500000Y-7500000D03*
X16500000Y-8000000D03*
X16650000Y-3150000D03*
X16700000Y-3900000D03*
X16700000Y-19300000D03*
X16700000Y-19700000D03*
X16700000Y-22250000D03*
X16700000Y-22650000D03*
X17100000Y-19300000D03*
X17100000Y-19700000D03*
X17100000Y-22250000D03*
X17100000Y-22650000D03*
X17200000Y-17900000D03*
X17200000Y-18500000D03*
X17400000Y-9100000D03*
X17400000Y-9600000D03*
X17400000Y-10100000D03*
X17500000Y-19300000D03*
X17500000Y-19700000D03*
X17500000Y-22250000D03*
X17500000Y-22650000D03*
X17700000Y-17900000D03*
X17700000Y-18500000D03*
X17800000Y-11400000D03*
X17800000Y-13300000D03*
X17800000Y-13800000D03*
X17900000Y-19300000D03*
X17900000Y-19700000D03*
X17900000Y-22250000D03*
X17900000Y-22650000D03*
X18200000Y-15900000D03*
X18300000Y-11400000D03*
X18300000Y-13300000D03*
X18300000Y-13800000D03*
X18300000Y-19700000D03*
X18300000Y-22250000D03*
X18300000Y-22650000D03*
X18800000Y-20800000D03*
X18800000Y-21200000D03*
X19200000Y-20800000D03*
X19200000Y-21200000D03*
X19600000Y-5400000D03*
X19600000Y-5900000D03*
X19600000Y-6400000D03*
X19600000Y-6900000D03*
X19600000Y-7400000D03*
X19600000Y-7900000D03*
X19600000Y-8400000D03*
X20100000Y-8400000D03*
X20250000Y-20700000D03*
X20250000Y-21100000D03*
X20600000Y-8400000D03*
X20650000Y-20700000D03*
X20650000Y-21100000D03*
X21000000Y-13600000D03*
X21400000Y-11300000D03*
X21400000Y-13100000D03*
X21800000Y-12500000D03*
X21900000Y-4500000D03*
X22200000Y-12100000D03*
X22600000Y-11700000D03*
X22600000Y-16500000D03*
X23000000Y-7700000D03*
X23000000Y-10900000D03*
X23000000Y-16900000D03*
X23400000Y-10100000D03*
X23400000Y-18100000D03*
X23800000Y-10500000D03*
X23800000Y-15700000D03*
X24200000Y-6500000D03*
X24200000Y-14100000D03*
X24200000Y-17300000D03*
X24600000Y-9700000D03*
X24600000Y-17700000D03*
X24700000Y-3800000D03*
X25000000Y-6500000D03*
X25000000Y-14100000D03*
X25000000Y-14900000D03*
X25000000Y-18500000D03*
X25200000Y-3800000D03*
X25400000Y-10100000D03*
X25400000Y-18900000D03*
X25800000Y-6500000D03*
X25800000Y-9700000D03*
X25800000Y-14100000D03*
X25800000Y-14900000D03*
X25800000Y-19700000D03*
X26200000Y-10100000D03*
X26600000Y-6500000D03*
X26600000Y-9700000D03*
X26600000Y-14100000D03*
X26600000Y-14900000D03*
X27000000Y-10100000D03*
X27000000Y-20500000D03*
X27400000Y-6500000D03*
X27400000Y-14100000D03*
X27400000Y-14900000D03*
X27400000Y-20900000D03*
X27800000Y-10100000D03*
X27800000Y-21300000D03*
X28200000Y-9700000D03*
X28600000Y-10100000D03*
X29000000Y-10500000D03*
X29000000Y-11100000D03*
X29000000Y-14100000D03*
X29000000Y-19300000D03*
X29400000Y-6500000D03*
X29400000Y-11700000D03*
X29400000Y-12500000D03*
X29400000Y-13300000D03*
X29400000Y-20100000D03*
X30200000Y-4900000D03*
X30200000Y-6500000D03*
X30200000Y-14100000D03*
X30600000Y-4500000D03*
X30600000Y-15700000D03*
X30600000Y-16500000D03*
X30600000Y-17300000D03*
X30600000Y-18100000D03*
X30600000Y-18900000D03*
X30600000Y-19700000D03*
X30600000Y-20500000D03*
X30600000Y-21300000D03*
X31000000Y-9300000D03*
X31000000Y-14100000D03*
X31000000Y-20900000D03*
X31000000Y-21700000D03*
X31400000Y-6500000D03*
X31400000Y-9700000D03*
X31400000Y-11600000D03*
X31800000Y-8500000D03*
X31800000Y-9300000D03*
X31800000Y-12500000D03*
X31800000Y-14100000D03*
X32200000Y-6500000D03*
X32200000Y-9700000D03*
X32600000Y-10100000D03*
X32600000Y-14100000D03*
X33000000Y-6500000D03*
X33000000Y-9700000D03*
X33400000Y-14100000D03*
X33800000Y-6500000D03*
X34200000Y-14100000D03*
X34600000Y-6500000D03*
X34600000Y-9700000D03*
X35000000Y-11700000D03*
X35000000Y-12500000D03*
X35000000Y-14100000D03*
X35400000Y-6500000D03*
X35400000Y-9700000D03*
X36200000Y-6500000D03*
X36200000Y-9700000D03*
X36700000Y-14800000D03*
X36800000Y-6700000D03*
X36800000Y-12900000D03*
X37400000Y-8100000D03*
X37800000Y-8500000D03*
X38600000Y-6500000D03*
X38800000Y-8900000D03*
X39000000Y-10500000D03*
X39000000Y-14500000D03*
X39800000Y-6900000D03*
X39800000Y-7700000D03*
X39800000Y-9300000D03*
X39800000Y-10100000D03*
X39800000Y-12500000D03*
X39800000Y-13300000D03*
X39800000Y-14100000D03*
X39800000Y-16500000D03*
X39800000Y-18900000D03*
X39800000Y-19700000D03*
X40100000Y-3800000D03*
X40600000Y-3800000D03*
X40600000Y-6900000D03*
X40600000Y-7700000D03*
X40600000Y-8500000D03*
X40600000Y-9300000D03*
X40600000Y-10100000D03*
X40600000Y-12500000D03*
X40600000Y-14100000D03*
X40600000Y-18100000D03*
X41400000Y-6100000D03*
X41400000Y-6900000D03*
X41400000Y-7700000D03*
X41400000Y-8500000D03*
X41400000Y-9300000D03*
X41400000Y-10100000D03*
X41400000Y-11700000D03*
X41400000Y-12500000D03*
X41400000Y-13300000D03*
X41400000Y-14100000D03*
X41400000Y-14900000D03*
X41400000Y-15700000D03*
X41400000Y-17300000D03*
X41800000Y-4100000D03*
X41800000Y-4900000D03*
X42200000Y-4500000D03*
X42200000Y-9300000D03*
X42200000Y-10100000D03*
X42200000Y-10900000D03*
X42200000Y-11700000D03*
X42200000Y-12500000D03*
X42200000Y-13300000D03*
X42200000Y-14100000D03*
X42200000Y-14900000D03*
X42200000Y-15700000D03*
X42200000Y-19700000D03*
X42200000Y-20500000D03*
X42600000Y-4100000D03*
X43000000Y-7700000D03*
X43000000Y-8500000D03*
X43000000Y-10100000D03*
X43000000Y-10900000D03*
X43000000Y-11700000D03*
X43000000Y-13300000D03*
X43000000Y-14900000D03*
X43000000Y-16500000D03*
X43800000Y-6100000D03*
X43800000Y-8500000D03*
X43800000Y-9300000D03*
X43800000Y-10100000D03*
X43800000Y-10900000D03*
X43800000Y-11700000D03*
X43800000Y-12500000D03*
X43800000Y-13300000D03*
X43800000Y-14100000D03*
X43800000Y-14900000D03*
X43800000Y-15700000D03*
X43800000Y-16500000D03*
X43800000Y-17300000D03*
X43800000Y-18100000D03*
X43800000Y-20500000D03*
X44200000Y-3700000D03*
X44200000Y-4100000D03*
X44200000Y-4500000D03*
X44600000Y-6900000D03*
X44600000Y-7700000D03*
X44600000Y-9300000D03*
X44600000Y-10100000D03*
X44600000Y-10900000D03*
X44600000Y-11700000D03*
X44600000Y-12500000D03*
X44600000Y-13300000D03*
X44600000Y-14100000D03*
X44600000Y-14900000D03*
X44600000Y-15700000D03*
X44600000Y-16500000D03*
X44600000Y-17300000D03*
X44600000Y-18100000D03*
X44600000Y-20500000D03*
X45400000Y-6100000D03*
X45400000Y-6900000D03*
X45400000Y-9300000D03*
X45400000Y-10100000D03*
X45400000Y-10900000D03*
X45400000Y-11700000D03*
X45400000Y-12500000D03*
X45400000Y-13300000D03*
X45400000Y-14100000D03*
X45400000Y-14900000D03*
X45400000Y-15700000D03*
X45400000Y-16500000D03*
X45400000Y-20500000D03*
X45800000Y-4700000D03*
X46200000Y-4300000D03*
X46200000Y-5100000D03*
X46200000Y-6900000D03*
X46200000Y-8500000D03*
X46200000Y-10100000D03*
X46200000Y-10900000D03*
X46200000Y-11700000D03*
X46200000Y-12500000D03*
X46200000Y-13300000D03*
X46200000Y-14100000D03*
X46200000Y-14900000D03*
X46200000Y-15700000D03*
X46200000Y-16500000D03*
X46200000Y-17300000D03*
X46200000Y-19700000D03*
X46200000Y-20500000D03*
X47000000Y-4300000D03*
X47000000Y-5100000D03*
X47000000Y-9300000D03*
X47000000Y-10100000D03*
X47000000Y-10900000D03*
X47000000Y-11700000D03*
X47000000Y-12500000D03*
X47000000Y-13300000D03*
X47000000Y-14100000D03*
X47000000Y-14900000D03*
X47000000Y-15700000D03*
X47000000Y-16500000D03*
X47000000Y-17300000D03*
X47000000Y-18900000D03*
X47400000Y-3600000D03*
X47400000Y-4700000D03*
X47800000Y-6900000D03*
X47800000Y-7700000D03*
X47800000Y-10100000D03*
X47800000Y-10900000D03*
X47800000Y-11700000D03*
X47800000Y-12500000D03*
X47800000Y-13300000D03*
X47800000Y-14100000D03*
X47800000Y-14900000D03*
X47800000Y-15700000D03*
X47800000Y-16500000D03*
X47800000Y-17300000D03*
X48600000Y-4700000D03*
X48600000Y-7700000D03*
X48600000Y-10900000D03*
X48600000Y-11700000D03*
X48600000Y-12500000D03*
X48600000Y-13300000D03*
X48600000Y-14100000D03*
X48600000Y-14900000D03*
X48600000Y-15700000D03*
X48600000Y-16500000D03*
X48600000Y-17300000D03*
X48600000Y-20500000D03*
X49000000Y-3500000D03*
X49000000Y-4300000D03*
X49000000Y-5100000D03*
X49400000Y-6900000D03*
X49400000Y-7700000D03*
X49400000Y-10900000D03*
X49400000Y-11700000D03*
X49400000Y-12500000D03*
X49400000Y-13300000D03*
X49400000Y-14100000D03*
X49400000Y-14900000D03*
X49400000Y-15700000D03*
X49400000Y-19700000D03*
X49400000Y-20500000D03*
X49800000Y-3900000D03*
X50200000Y-4700000D03*
X50200000Y-6900000D03*
X50200000Y-7700000D03*
X50200000Y-8500000D03*
X50200000Y-10900000D03*
X50200000Y-12500000D03*
X50200000Y-13300000D03*
X50200000Y-14100000D03*
X50200000Y-14900000D03*
X50200000Y-18900000D03*
X50200000Y-19700000D03*
X50200000Y-20500000D03*
X50600000Y-3900000D03*
X51000000Y-4700000D03*
X51000000Y-6900000D03*
X51000000Y-7700000D03*
X51000000Y-8500000D03*
X51000000Y-10900000D03*
X51000000Y-11700000D03*
X51000000Y-12500000D03*
X51000000Y-13300000D03*
X51000000Y-14900000D03*
X51000000Y-17300000D03*
X51000000Y-19700000D03*
X51000000Y-20500000D03*
X51400000Y-5100000D03*
X51800000Y-3300000D03*
X51800000Y-4100000D03*
X51800000Y-7700000D03*
X51800000Y-8500000D03*
X51800000Y-11700000D03*
X51800000Y-12500000D03*
X51800000Y-14100000D03*
X51800000Y-15700000D03*
X51800000Y-18100000D03*
X51800000Y-19700000D03*
X51800000Y-20500000D03*
X52200000Y-2900000D03*
X52200000Y-3700000D03*
X52200000Y-4500000D03*
X52200000Y-5100000D03*
X52600000Y-7700000D03*
X52600000Y-10100000D03*
X52600000Y-13300000D03*
X52600000Y-19700000D03*
X52600000Y-20500000D03*
X53000000Y-4900000D03*
X53400000Y-7700000D03*
X53400000Y-8500000D03*
X53400000Y-9300000D03*
X53400000Y-10900000D03*
X53400000Y-15700000D03*
X53400000Y-17300000D03*
X53400000Y-18100000D03*
X53400000Y-18900000D03*
X53400000Y-19700000D03*
X53400000Y-20500000D03*
X54200000Y-9300000D03*
X54200000Y-10100000D03*
X54200000Y-10900000D03*
X54200000Y-17300000D03*
X54200000Y-18900000D03*
X54200000Y-19700000D03*
X54200000Y-20500000D03*
X55200000Y-12900000D03*
X56750000Y-11700000D03*
X56750000Y-12050000D03*
X56750000Y-12400000D03*
X56750000Y-13050000D03*
X56750000Y-13400000D03*
X56750000Y-13750000D03*
X57100000Y-9600000D03*
X57100000Y-11350000D03*
X57100000Y-11700000D03*
X57100000Y-12050000D03*
X57100000Y-12400000D03*
X57100000Y-13050000D03*
X57100000Y-13400000D03*
X57100000Y-13750000D03*
X57450000Y-11000000D03*
X57450000Y-11350000D03*
X57450000Y-11700000D03*
X57450000Y-12050000D03*
X57450000Y-12400000D03*
X57450000Y-13050000D03*
X57450000Y-13400000D03*
X57450000Y-13750000D03*
X57850000Y-14400000D03*
X57850000Y-14750000D03*
X57850000Y-15100000D03*
X58200000Y-14050000D03*
X58200000Y-14400000D03*
X58200000Y-14750000D03*
X58200000Y-15100000D03*
X60900000Y-9800000D03*
X60900000Y-10150000D03*
X60900000Y-12800000D03*
X60900000Y-13150000D03*
X60900000Y-13500000D03*
X61250000Y-9800000D03*
X61250000Y-10150000D03*
X62500000Y-13150000D03*
X62800000Y-13150000D03*
X62900000Y-10500000D03*
X62900000Y-10850000D03*
X63100000Y-10200000D03*
X63100000Y-13150000D03*
X63200000Y-11200000D03*
X63250000Y-10500000D03*
X63250000Y-10850000D03*
X63350000Y-17200000D03*
X63350000Y-17550000D03*
X63350000Y-17900000D03*
X63350000Y-18550000D03*
X63350000Y-18900000D03*
X63700000Y-17200000D03*
X63700000Y-17550000D03*
X63700000Y-17900000D03*
X63700000Y-18550000D03*
X63700000Y-18900000D03*
X64050000Y-17200000D03*
X64050000Y-17550000D03*
X64050000Y-17900000D03*
X64050000Y-18550000D03*
X64050000Y-18900000D03*
X64700000Y-17200000D03*
X65000000Y-17200000D03*
X65650000Y-17200000D03*
X65700000Y-19000000D03*
X65950000Y-17200000D03*
X66050000Y-19000000D03*
X66400000Y-19000000D03*
X66750000Y-9600000D03*
X66750000Y-19000000D03*
X67100000Y-19000000D03*
X67450000Y-19000000D03*
X67800000Y-19000000D03*
X68000000Y-16950000D03*
X68250000Y-9300000D03*
X68400000Y-18800000D03*
X68450000Y-9000000D03*
X68600000Y-9300000D03*
X68800000Y-9000000D03*
X69000000Y-15700000D03*
X69100000Y-10750000D03*
X69500000Y-10750000D03*
X69550000Y-10350000D03*
X69700000Y-5150000D03*
X69800000Y-8100000D03*
X69800000Y-8450000D03*
X69900000Y-12750000D03*
X69900000Y-17000000D03*
X69950000Y-10350000D03*
X70000000Y-7300000D03*
X70000000Y-9950000D03*
X70200000Y-5150000D03*
X70200000Y-8100000D03*
X70200000Y-8450000D03*
X70200000Y-12750000D03*
X70500000Y-12750000D03*
X70600000Y-7600000D03*
X70700000Y-5150000D03*
X70700000Y-17000000D03*
X71150000Y-12750000D03*
X71150000Y-13050000D03*
X71200000Y-5150000D03*
X71300000Y-7300000D03*
X71550000Y-9100000D03*
X71700000Y-5150000D03*
X71700000Y-17300000D03*
X71750000Y-10500000D03*
X71750000Y-10850000D03*
X71750000Y-11200000D03*
X71750000Y-11550000D03*
X71750000Y-13650000D03*
X71750000Y-14000000D03*
X71750000Y-14350000D03*
X71750000Y-14700000D03*
X71750000Y-15050000D03*
X71900000Y-9100000D03*
X72100000Y-10500000D03*
X72100000Y-10850000D03*
X72100000Y-11200000D03*
X72100000Y-11550000D03*
X72100000Y-12400000D03*
X72100000Y-13650000D03*
X72100000Y-14000000D03*
X72100000Y-14350000D03*
X72100000Y-14700000D03*
X72100000Y-15050000D03*
X72100000Y-17300000D03*
X72250000Y-9100000D03*
X72450000Y-12400000D03*
X72500000Y-5150000D03*
X72600000Y-9100000D03*
X72800000Y-12400000D03*
X73300000Y-5150000D03*
X73700000Y-12200000D03*
X73750000Y-15400000D03*
X73750000Y-15800000D03*
X73800000Y-5150000D03*
X74050000Y-12200000D03*
X74100000Y-15400000D03*
X74100000Y-15800000D03*
X74300000Y-5150000D03*
X74300000Y-17300000D03*
X74400000Y-12200000D03*
X74450000Y-15400000D03*
X74450000Y-15800000D03*
X74800000Y-5150000D03*
X75100000Y-9200000D03*
X75100000Y-9700000D03*
X75100000Y-18000000D03*
X75400000Y-5150000D03*
X75600000Y-18000000D03*
X75600000Y-18750000D03*
X75600000Y-19100000D03*
X75950000Y-18750000D03*
X75950000Y-19100000D03*
X76600000Y-15900000D03*
X77200000Y-13600000D03*
X77850000Y-18750000D03*
X77850000Y-19100000D03*
X77900000Y-13600000D03*
X77900000Y-14400000D03*
X77900000Y-16100000D03*
X78200000Y-18750000D03*
X78200000Y-19100000D03*
X78400000Y-14400000D03*
X78550000Y-18750000D03*
X78550000Y-19100000D03*
X78900000Y-19100000D03*
X79000000Y-10600000D03*
X79250000Y-19100000D03*
X79600000Y-19100000D03*
X79800000Y-13550000D03*
X79800000Y-14750000D03*
X79850000Y-17250000D03*
X79900000Y-15600000D03*
X80200000Y-13550000D03*
X80200000Y-13950000D03*
X80800000Y-13700000D03*
X80800000Y-18400000D03*
X81250000Y-9500000D03*
X81500000Y-17850000D03*
X81750000Y-11900000D03*
X82250000Y-9500000D03*
X82750000Y-12700000D03*
X82750000Y-19000000D03*
X83000000Y-16000000D03*
X83100000Y-20500000D03*
X83250000Y-9500000D03*
X83750000Y-8700000D03*
X83750000Y-19100000D03*
X84200000Y-7600000D03*
X84200000Y-8200000D03*
X84200000Y-9200000D03*
X84200000Y-9800000D03*
X84250000Y-11100000D03*
X84500000Y-5800000D03*
X84500000Y-6600000D03*
X84750000Y-9800000D03*
X85300000Y-18550000D03*
X85400000Y-13800000D03*
X86000000Y-12700000D03*
X86150000Y-14750000D03*
X86200000Y-15750000D03*
X86200000Y-16750000D03*
X86300000Y-10200000D03*
X86300000Y-11500000D03*
X86600000Y-16250000D03*
X87000000Y-15250000D03*
X87600000Y-2400000D03*
X87600000Y-3700000D03*
X87600000Y-5000000D03*
X87600000Y-6200000D03*
X87600000Y-7500000D03*
D11*
X16000000Y-21000000D03*
X68000000Y-7000000D03*
D12*
%TO.C,AE2*%
X14400000Y-17600000D03*
%TO.C,U7*%
X65000000Y-11300000D03*
X65000000Y-12100000D03*
X65000000Y-12900000D03*
X65000000Y-13700000D03*
X65000000Y-14500000D03*
X65000000Y-15300000D03*
X65750000Y-11300000D03*
X65750000Y-12100000D03*
X65750000Y-12900000D03*
X65750000Y-13700000D03*
X65750000Y-14500000D03*
X65750000Y-15300000D03*
X66500000Y-11300000D03*
X66500000Y-12100000D03*
X66500000Y-12900000D03*
X66500000Y-13700000D03*
X66500000Y-14500000D03*
X66500000Y-15300000D03*
X67250000Y-11300000D03*
X67250000Y-12100000D03*
X67250000Y-12900000D03*
X67250000Y-13700000D03*
X67250000Y-14500000D03*
X67250000Y-15300000D03*
X68000000Y-11300000D03*
X68000000Y-12100000D03*
X68000000Y-12900000D03*
X68000000Y-13700000D03*
X68000000Y-14500000D03*
X68000000Y-15300000D03*
%TO.C,TP1*%
X69290000Y-19000000D03*
X71830000Y-19000000D03*
X74370000Y-19000000D03*
X76910000Y-19000000D03*
D13*
%TO.C,J3*%
X17000000Y-15000000D03*
X17000000Y-16000000D03*
%TO.C,J2*%
X52000000Y-1000000D03*
X53000000Y-1000000D03*
X54000000Y-1000000D03*
X55000000Y-1000000D03*
X56000000Y-1000000D03*
X57000000Y-1000000D03*
%TO.C,J4*%
X57000000Y-22000000D03*
%TO.C,J2*%
X58000000Y-1000000D03*
%TO.C,J4*%
X58000000Y-22000000D03*
%TO.C,J2*%
X59000000Y-1000000D03*
%TO.C,J6*%
X59000000Y-7000000D03*
%TO.C,J4*%
X59000000Y-22000000D03*
%TO.C,J6*%
X60000000Y-7000000D03*
%TO.C,J4*%
X60000000Y-22000000D03*
%TO.C,J6*%
X61000000Y-7000000D03*
%TO.C,J4*%
X61000000Y-22000000D03*
%TO.C,J6*%
X62000000Y-7000000D03*
%TO.C,J4*%
X62000000Y-22000000D03*
%TO.C,J6*%
X63000000Y-7000000D03*
%TO.C,J4*%
X63000000Y-22000000D03*
%TO.C,J6*%
X64000000Y-7000000D03*
%TO.C,J4*%
X64000000Y-22000000D03*
%TO.C,J6*%
X65000000Y-7000000D03*
%TO.C,J4*%
X65000000Y-22000000D03*
%TO.C,J5*%
X66000000Y-1000000D03*
%TO.C,J6*%
X66000000Y-7000000D03*
%TO.C,J4*%
X66000000Y-22000000D03*
%TO.C,J5*%
X67000000Y-1000000D03*
%TO.C,J6*%
X67000000Y-7000000D03*
%TO.C,J4*%
X67000000Y-22000000D03*
%TO.C,J5*%
X68000000Y-1000000D03*
%TO.C,J4*%
X68000000Y-22000000D03*
%TO.C,J5*%
X69000000Y-1000000D03*
%TO.C,J4*%
X69000000Y-22000000D03*
%TO.C,J5*%
X70000000Y-1000000D03*
%TO.C,J7*%
X70000000Y-19000000D03*
%TO.C,J4*%
X70000000Y-22000000D03*
%TO.C,J5*%
X71000000Y-1000000D03*
%TO.C,J7*%
X71000000Y-19000000D03*
%TO.C,J4*%
X71000000Y-22000000D03*
%TO.C,J5*%
X72000000Y-1000000D03*
%TO.C,J4*%
X72000000Y-22000000D03*
%TO.C,J5*%
X73000000Y-1000000D03*
%TO.C,J4*%
X73000000Y-22000000D03*
%TO.C,J5*%
X74000000Y-1000000D03*
%TO.C,J4*%
X74000000Y-22000000D03*
%TO.C,J5*%
X75000000Y-1000000D03*
%TO.C,J4*%
X75000000Y-22000000D03*
%TO.C,J5*%
X76000000Y-1000000D03*
%TO.C,J4*%
X76000000Y-22000000D03*
%TO.C,J5*%
X77000000Y-1000000D03*
%TO.C,J4*%
X77000000Y-22000000D03*
%TO.C,J5*%
X78000000Y-1000000D03*
%TO.C,J4*%
X78000000Y-22000000D03*
%TO.C,J5*%
X79000000Y-1000000D03*
%TO.C,J4*%
X79000000Y-22000000D03*
%TO.C,J5*%
X80000000Y-1000000D03*
%TO.C,J4*%
X80000000Y-22000000D03*
%TO.C,J5*%
X81000000Y-1000000D03*
%TO.C,J4*%
X81000000Y-22000000D03*
%TO.C,J5*%
X82000000Y-1000000D03*
%TO.C,J4*%
X82000000Y-22000000D03*
%TO.C,J5*%
X83000000Y-1000000D03*
%TO.C,J4*%
X83000000Y-22000000D03*
%TO.C,J5*%
X84000000Y-1000000D03*
%TO.C,J4*%
X84000000Y-22000000D03*
%TO.C,J5*%
X85000000Y-1000000D03*
%TO.C,J4*%
X85000000Y-22000000D03*
%TO.C,J5*%
X86000000Y-1000000D03*
%TO.C,J4*%
X86000000Y-22000000D03*
%TO.C,J5*%
X87000000Y-1000000D03*
%TO.C,J4*%
X87000000Y-22000000D03*
M02*
