%TF.GenerationSoftware,KiCad,Pcbnew,(6.0.0)*%
%TF.CreationDate,2022-01-21T23:47:04+08:00*%
%TF.ProjectId,som,736f6d2e-6b69-4636-9164-5f7063625858,V0R1*%
%TF.SameCoordinates,Original*%
%TF.FileFunction,Paste,Bot*%
%TF.FilePolarity,Positive*%
%FSLAX46Y46*%
G04 Gerber Fmt 4.6, Leading zero omitted, Abs format (unit mm)*
G04 Created by KiCad (PCBNEW (6.0.0)) date 2022-01-21 23:47:04*
%MOMM*%
%LPD*%
G01*
G04 APERTURE LIST*
G04 Aperture macros list*
%AMRoundRect*
0 Rectangle with rounded corners*
0 $1 Rounding radius*
0 $2 $3 $4 $5 $6 $7 $8 $9 X,Y pos of 4 corners*
0 Add a 4 corners polygon primitive as box body*
4,1,4,$2,$3,$4,$5,$6,$7,$8,$9,$2,$3,0*
0 Add four circle primitives for the rounded corners*
1,1,$1+$1,$2,$3*
1,1,$1+$1,$4,$5*
1,1,$1+$1,$6,$7*
1,1,$1+$1,$8,$9*
0 Add four rect primitives between the rounded corners*
20,1,$1+$1,$2,$3,$4,$5,0*
20,1,$1+$1,$4,$5,$6,$7,0*
20,1,$1+$1,$6,$7,$8,$9,0*
20,1,$1+$1,$8,$9,$2,$3,0*%
G04 Aperture macros list end*
%ADD10RoundRect,0.100000X0.175000X0.100000X-0.175000X0.100000X-0.175000X-0.100000X0.175000X-0.100000X0*%
%ADD11RoundRect,0.100000X0.125000X0.100000X-0.125000X0.100000X-0.125000X-0.100000X0.125000X-0.100000X0*%
%ADD12RoundRect,0.100000X-0.130000X-0.100000X0.130000X-0.100000X0.130000X0.100000X-0.130000X0.100000X0*%
%ADD13RoundRect,0.100000X0.100000X-0.130000X0.100000X0.130000X-0.100000X0.130000X-0.100000X-0.130000X0*%
%ADD14RoundRect,0.100000X0.130000X0.100000X-0.130000X0.100000X-0.130000X-0.100000X0.130000X-0.100000X0*%
%ADD15RoundRect,0.100000X-0.100000X0.130000X-0.100000X-0.130000X0.100000X-0.130000X0.100000X0.130000X0*%
%ADD16RoundRect,0.100000X-0.175000X-0.100000X0.175000X-0.100000X0.175000X0.100000X-0.175000X0.100000X0*%
%ADD17RoundRect,0.100000X-0.125000X-0.100000X0.125000X-0.100000X0.125000X0.100000X-0.125000X0.100000X0*%
%ADD18RoundRect,0.100000X0.021213X0.162635X-0.162635X-0.021213X-0.021213X-0.162635X0.162635X0.021213X0*%
%ADD19RoundRect,0.218750X0.218750X0.256250X-0.218750X0.256250X-0.218750X-0.256250X0.218750X-0.256250X0*%
%ADD20RoundRect,0.225000X-0.225000X-0.250000X0.225000X-0.250000X0.225000X0.250000X-0.225000X0.250000X0*%
%ADD21RoundRect,0.100000X-0.100000X0.175000X-0.100000X-0.175000X0.100000X-0.175000X0.100000X0.175000X0*%
%ADD22RoundRect,0.100000X-0.100000X0.125000X-0.100000X-0.125000X0.100000X-0.125000X0.100000X0.125000X0*%
%ADD23RoundRect,0.100000X-0.021213X-0.162635X0.162635X0.021213X0.021213X0.162635X-0.162635X-0.021213X0*%
%ADD24RoundRect,0.243750X-0.656250X0.243750X-0.656250X-0.243750X0.656250X-0.243750X0.656250X0.243750X0*%
%ADD25RoundRect,0.147500X0.147500X0.172500X-0.147500X0.172500X-0.147500X-0.172500X0.147500X-0.172500X0*%
%ADD26R,0.600000X0.700000*%
%ADD27RoundRect,0.137500X0.137500X0.262500X-0.137500X0.262500X-0.137500X-0.262500X0.137500X-0.262500X0*%
%ADD28RoundRect,0.140000X0.140000X0.170000X-0.140000X0.170000X-0.140000X-0.170000X0.140000X-0.170000X0*%
%ADD29R,1.150000X1.000000*%
%ADD30RoundRect,0.100000X-0.162635X0.021213X0.021213X-0.162635X0.162635X-0.021213X-0.021213X0.162635X0*%
%ADD31RoundRect,0.140000X-0.140000X-0.170000X0.140000X-0.170000X0.140000X0.170000X-0.140000X0.170000X0*%
%ADD32R,0.400000X0.500000*%
%ADD33R,0.300000X0.500000*%
%ADD34R,1.000000X1.150000*%
G04 APERTURE END LIST*
D10*
%TO.C,C96*%
X50250000Y-6500000D03*
X50950000Y-6500000D03*
D11*
X51000000Y-6500000D03*
X50200000Y-6500000D03*
%TD*%
D12*
%TO.C,C88*%
X50280000Y-9100000D03*
X50920000Y-9100000D03*
%TD*%
D13*
%TO.C,C89*%
X47400000Y-7620000D03*
X47400000Y-6980000D03*
%TD*%
D14*
%TO.C,C91*%
X43720000Y-13000000D03*
X43080000Y-13000000D03*
%TD*%
D13*
%TO.C,C93*%
X43800000Y-20020000D03*
X43800000Y-19380000D03*
%TD*%
D10*
%TO.C,C95*%
X43050000Y-6500000D03*
X43750000Y-6500000D03*
D11*
X43800000Y-6500000D03*
X43000000Y-6500000D03*
%TD*%
D15*
%TO.C,C90*%
X44600000Y-8180000D03*
X44600000Y-8820000D03*
%TD*%
D14*
%TO.C,C92*%
X43720000Y-14900000D03*
X43080000Y-14900000D03*
%TD*%
D15*
%TO.C,C123*%
X50000000Y-19780000D03*
X50000000Y-20420000D03*
%TD*%
D12*
%TO.C,C124*%
X51480000Y-17300000D03*
X52120000Y-17300000D03*
%TD*%
%TO.C,C126*%
X53480000Y-16900000D03*
X54120000Y-16900000D03*
%TD*%
D13*
%TO.C,C125*%
X52200000Y-19220000D03*
X52200000Y-18580000D03*
%TD*%
D14*
%TO.C,C127*%
X52920000Y-15700000D03*
X52280000Y-15700000D03*
%TD*%
D15*
%TO.C,C131*%
X53000000Y-10080000D03*
X53000000Y-10720000D03*
%TD*%
D12*
%TO.C,C128*%
X51880000Y-13700000D03*
X52520000Y-13700000D03*
%TD*%
D14*
%TO.C,C129*%
X54920000Y-12900000D03*
X54280000Y-12900000D03*
%TD*%
D12*
%TO.C,C130*%
X52280000Y-12500000D03*
X52920000Y-12500000D03*
%TD*%
D14*
%TO.C,C132*%
X53320000Y-7300000D03*
X52680000Y-7300000D03*
%TD*%
%TO.C,C53*%
X48520000Y-16300000D03*
X47880000Y-16300000D03*
%TD*%
%TO.C,C45*%
X48520000Y-12300000D03*
X47880000Y-12300000D03*
%TD*%
D16*
%TO.C,C54*%
X43850000Y-15900000D03*
X44550000Y-15900000D03*
D17*
X43800000Y-15900000D03*
X44600000Y-15900000D03*
%TD*%
D15*
%TO.C,C44*%
X48400000Y-10980000D03*
X48400000Y-11620000D03*
%TD*%
D18*
%TO.C,C52*%
X44426274Y-17473726D03*
X43973726Y-17926274D03*
%TD*%
D13*
%TO.C,C47*%
X48800000Y-15620000D03*
X48800000Y-14980000D03*
%TD*%
D15*
%TO.C,C48*%
X44800000Y-12580000D03*
X44800000Y-13220000D03*
%TD*%
D13*
%TO.C,C50*%
X44600000Y-10020000D03*
X44600000Y-9380000D03*
%TD*%
D15*
%TO.C,C49*%
X44800000Y-14180000D03*
X44800000Y-14820000D03*
%TD*%
D13*
%TO.C,C46*%
X48400000Y-14020000D03*
X48400000Y-13380000D03*
%TD*%
D12*
%TO.C,C43*%
X47080000Y-11100000D03*
X47720000Y-11100000D03*
%TD*%
%TO.C,C64*%
X46280000Y-15500000D03*
X46920000Y-15500000D03*
%TD*%
D15*
%TO.C,C67*%
X47600000Y-13380000D03*
X47600000Y-14020000D03*
%TD*%
D16*
%TO.C,C133*%
X50250000Y-10500000D03*
X50950000Y-10500000D03*
D17*
X50200000Y-10500000D03*
X51000000Y-10500000D03*
%TD*%
D12*
%TO.C,C66*%
X45480000Y-14300000D03*
X46120000Y-14300000D03*
%TD*%
%TO.C,C63*%
X46280000Y-16300000D03*
X46920000Y-16300000D03*
%TD*%
D13*
%TO.C,C65*%
X48000000Y-15620000D03*
X48000000Y-14980000D03*
%TD*%
D12*
%TO.C,C68*%
X45480000Y-12700000D03*
X46120000Y-12700000D03*
%TD*%
%TO.C,C69*%
X45480000Y-11900000D03*
X46120000Y-11900000D03*
%TD*%
D19*
%TO.C,C2*%
X6587500Y-15800000D03*
X5012500Y-15800000D03*
%TD*%
D18*
%TO.C,C16*%
X43626274Y-16673726D03*
X43173726Y-17126274D03*
%TD*%
D15*
%TO.C,C58*%
X42600000Y-19780000D03*
X42600000Y-20420000D03*
%TD*%
D18*
%TO.C,C15*%
X43626274Y-11873726D03*
X43173726Y-12326274D03*
%TD*%
D13*
%TO.C,R10*%
X50600000Y-5820000D03*
X50600000Y-5180000D03*
%TD*%
%TO.C,R11*%
X43000000Y-9620000D03*
X43000000Y-8980000D03*
%TD*%
D15*
%TO.C,R7*%
X45400000Y-19380000D03*
X45400000Y-20020000D03*
%TD*%
%TO.C,R12*%
X43000000Y-10980000D03*
X43000000Y-11620000D03*
%TD*%
D20*
%TO.C,C20*%
X17125000Y-6200000D03*
X18675000Y-6200000D03*
%TD*%
D14*
%TO.C,R9*%
X30920000Y-14700000D03*
X30280000Y-14700000D03*
%TD*%
D13*
%TO.C,C57*%
X43000000Y-16020000D03*
X43000000Y-15380000D03*
%TD*%
D14*
%TO.C,C79*%
X36120000Y-6800000D03*
X35480000Y-6800000D03*
%TD*%
D12*
%TO.C,C83*%
X31080000Y-13800000D03*
X31720000Y-13800000D03*
%TD*%
%TO.C,C76*%
X29480000Y-6800000D03*
X30120000Y-6800000D03*
%TD*%
%TO.C,C81*%
X34280000Y-13800000D03*
X34920000Y-13800000D03*
%TD*%
D15*
%TO.C,C55*%
X41400000Y-6180000D03*
X41400000Y-6820000D03*
%TD*%
D14*
%TO.C,C74*%
X24920000Y-6800000D03*
X24280000Y-6800000D03*
%TD*%
%TO.C,C75*%
X26520000Y-6800000D03*
X25880000Y-6800000D03*
%TD*%
%TO.C,C18*%
X20870000Y-11300000D03*
X20230000Y-11300000D03*
%TD*%
%TO.C,C78*%
X34520000Y-6800000D03*
X33880000Y-6800000D03*
%TD*%
%TO.C,C82*%
X33320000Y-13800000D03*
X32680000Y-13800000D03*
%TD*%
%TO.C,C77*%
X32120000Y-6800000D03*
X31480000Y-6800000D03*
%TD*%
D15*
%TO.C,R1*%
X29100000Y-11780000D03*
X29100000Y-12420000D03*
%TD*%
D21*
%TO.C,C62*%
X31400000Y-12450000D03*
X31400000Y-11750000D03*
D22*
X31400000Y-11700000D03*
X31400000Y-12500000D03*
%TD*%
D23*
%TO.C,C60*%
X39973726Y-18726274D03*
X40426274Y-18273726D03*
%TD*%
D16*
%TO.C,C85*%
X26650000Y-14300000D03*
X27350000Y-14300000D03*
D17*
X26600000Y-14300000D03*
X27400000Y-14300000D03*
%TD*%
D15*
%TO.C,R8*%
X44600000Y-19380000D03*
X44600000Y-20020000D03*
%TD*%
D10*
%TO.C,C84*%
X24250000Y-14300000D03*
X24950000Y-14300000D03*
D11*
X25000000Y-14300000D03*
X24200000Y-14300000D03*
%TD*%
D16*
%TO.C,C61*%
X40250000Y-16100000D03*
X40950000Y-16100000D03*
D17*
X40200000Y-16100000D03*
X41000000Y-16100000D03*
%TD*%
D14*
%TO.C,C80*%
X36320000Y-13800000D03*
X35680000Y-13800000D03*
%TD*%
D12*
%TO.C,C1*%
X2480000Y-1400000D03*
X3120000Y-1400000D03*
%TD*%
D24*
%TO.C,L1*%
X1100000Y-562500D03*
X1100000Y-2437500D03*
%TD*%
D25*
%TO.C,C29*%
X75185000Y-10400000D03*
X74215000Y-10400000D03*
%TD*%
D14*
%TO.C,C30*%
X75095000Y-11100000D03*
X74455000Y-11100000D03*
%TD*%
D26*
%TO.C,D1*%
X84700000Y-13700000D03*
X83300000Y-13700000D03*
%TD*%
D12*
%TO.C,R4*%
X8880000Y-800000D03*
X9520000Y-800000D03*
%TD*%
D27*
%TO.C,C72*%
X44550000Y-10900000D03*
X43850000Y-10900000D03*
D11*
X44600000Y-10900000D03*
X43800000Y-10900000D03*
%TD*%
D12*
%TO.C,FB3*%
X44680000Y-10900000D03*
X45320000Y-10900000D03*
%TD*%
D28*
%TO.C,C19*%
X20880000Y-10500000D03*
X19920000Y-10500000D03*
%TD*%
D15*
%TO.C,C73*%
X44600000Y-11130000D03*
X44600000Y-11770000D03*
%TD*%
%TO.C,C51*%
X45600000Y-15780000D03*
X45600000Y-16420000D03*
%TD*%
%TO.C,C71*%
X46800000Y-11780000D03*
X46800000Y-12420000D03*
%TD*%
D13*
%TO.C,C94*%
X46500000Y-20420000D03*
X46500000Y-19780000D03*
%TD*%
D14*
%TO.C,R6*%
X87495000Y-13200000D03*
X86855000Y-13200000D03*
%TD*%
D29*
%TO.C,X1*%
X10075000Y-16500000D03*
X8325000Y-16500000D03*
X8325000Y-15100000D03*
X10075000Y-15100000D03*
%TD*%
D13*
%TO.C,C26*%
X87600000Y-9245000D03*
X87600000Y-8605000D03*
%TD*%
D30*
%TO.C,C56*%
X42373726Y-11873726D03*
X42826274Y-12326274D03*
%TD*%
D12*
%TO.C,C70*%
X47080000Y-10300000D03*
X47720000Y-10300000D03*
%TD*%
D31*
%TO.C,C21*%
X17220000Y-8000000D03*
X18180000Y-8000000D03*
%TD*%
D12*
%TO.C,C22*%
X17405000Y-7200000D03*
X18045000Y-7200000D03*
%TD*%
D13*
%TO.C,R14*%
X46200000Y-8020000D03*
X46200000Y-7380000D03*
%TD*%
D29*
%TO.C,X2*%
X2525000Y-16500000D03*
X775000Y-16500000D03*
X775000Y-15100000D03*
X2525000Y-15100000D03*
%TD*%
D32*
%TO.C,RN9*%
X47450000Y-19000000D03*
D33*
X46950000Y-19000000D03*
X46450000Y-19000000D03*
D32*
X45950000Y-19000000D03*
X45950000Y-18000000D03*
D33*
X46450000Y-18000000D03*
X46950000Y-18000000D03*
D32*
X47450000Y-18000000D03*
%TD*%
D30*
%TO.C,C59*%
X42773726Y-13873726D03*
X43226274Y-14326274D03*
%TD*%
D12*
%TO.C,C27*%
X3655000Y-16000000D03*
X4295000Y-16000000D03*
%TD*%
D31*
%TO.C,C28*%
X3620000Y-16750000D03*
X4580000Y-16750000D03*
%TD*%
D12*
%TO.C,FB2*%
X4080000Y-14850000D03*
X4720000Y-14850000D03*
%TD*%
%TO.C,C10*%
X780000Y-14000000D03*
X1420000Y-14000000D03*
%TD*%
D15*
%TO.C,R3*%
X1700000Y-12480000D03*
X1700000Y-13120000D03*
%TD*%
D31*
%TO.C,C121*%
X55420000Y-5300000D03*
X56380000Y-5300000D03*
%TD*%
D14*
%TO.C,C122*%
X54620000Y-5300000D03*
X53980000Y-5300000D03*
%TD*%
D15*
%TO.C,FB5*%
X53300000Y-5980000D03*
X53300000Y-6620000D03*
%TD*%
D34*
%TO.C,X5*%
X55700000Y-6525000D03*
X55700000Y-8275000D03*
X54300000Y-8275000D03*
X54300000Y-6525000D03*
%TD*%
M02*
